<?xml version="1.0" encoding="utf-8"?>
<!-- Generator: Adobe Illustrator 22.1.0, SVG Export Plug-In . SVG Version: 6.00 Build 0)  -->
<svg version="1.1" id="Layer_1" xmlns="http://www.w3.org/2000/svg" xmlns:xlink="http://www.w3.org/1999/xlink" x="0px" y="0px"
	 viewBox="0 0 800 800" style="enable-background:new 0 0 800 800;" xml:space="preserve">
<style type="text/css">
	.st0{clip-path:url(#SVGID_2_);fill:none;}
	.st1{clip-path:url(#SVGID_2_);}
	.st2{fill:#FFB03B;}
	.st3{fill:#9DB552;}
	.st4{fill:#7B9737;}
	.st5{fill:#FCCE38;}
	.st6{fill:#FFDA71;}
	.st7{fill:#00A388;}
	.st8{fill:#F9593A;}
	.st9{fill:#E51313;}
	.st10{fill:#ED3D26;}
	.st11{clip-path:url(#SVGID_4_);}
	.st12{fill:#FFFFFF;}
	.st13{clip-path:url(#SVGID_6_);}
</style>
<g>
	<defs>
		<rect id="SVGID_1_" width="800" height="800"/>
	</defs>
	<clipPath id="SVGID_2_">
		<use xlink:href="#SVGID_1_"  style="overflow:visible;"/>
	</clipPath>
	<rect class="st0" width="800" height="800"/>
	<g class="st1">
		<g>
			<path class="st2" d="M224.5,445.7c2.8-7.2,1.8-17.8-1.1-17.5c-8.2-3.2-20.3,0.4-24.4,8c-1.8,3.4-0.8,7.2-0.3,7.6
				c2.2,1.5,0.3-4.2,13.1-9.1c6.6-2.2,4.3-1.2,2.1,0.4c-9,6.7-17.4,19-4.8,10.8c2.6-1.7,6-4.1,10.8-9.9c-1.3,4.3-3.3,7.2-6,11.2
				c-1.4,2.1,1.2,3.7,6-1.8c1.4-1.6-2.4,5.5-8.4,7.6c-0.8,0.3-2.8,0.7-2.8,0.7C203.6,455.6,219,459.7,224.5,445.7z M209.4,453.8
				C209.4,453.8,209.4,453.8,209.4,453.8C209.3,453.8,209.3,453.8,209.4,453.8z"/>
			<path class="st3" d="M556.4,204.1c-1-1.3-1.6-1.6-3.2-1.2c-5.9,1.6-8.7,2.7-14.5,5.4c-19.6,9-10,9.6-21.1,4.2
				c-34.1-16.2-101.2,10.1-130.8,30.7c-28.9,20.1-61.5,42.1-95.8,74.5c-19.3,18.3-78.2,81.9-74.7,106.4
				c9.4,67.7,255.4-116.1,293.8-158.1c1-1,1.9-2.1,2.9-3.1c5.1-5.5,10.7-10.9,14.4-17.4c3.5-6,6-13.6,3.9-20.4
				c-0.3-0.8-1.4-2.4-1.4-3.2c0-2.1,6.8-3.8,8.3-4.4C548.8,213,560.6,209.6,556.4,204.1z"/>
			<path class="st4" d="M240.4,399C240.4,399,240.4,399,240.4,399C240.4,399,240.4,399,240.4,399z"/>
			<path class="st4" d="M255.7,378.9C255.7,378.8,255.7,378.8,255.7,378.9C255.7,378.9,255.7,378.9,255.7,378.9z"/>
			<path class="st4" d="M385.9,263.3c45.9-28.3,65-31.9,97.6-40c24.6-6.1,28.1-2.5,29.6-4.3c3,0.9,8.5-4.9-17.8-2.8
				c-47.2,3.8-127.2,49.5-166.2,82.7c-69.3,58.6-116,130.7-105.2,124.5c1.2,0.2,1.5-0.9,1.8-1.5
				C254.5,372.3,316.3,306.4,385.9,263.3z M488.1,219.8c-0.1,0-0.7,0.2-0.8,0.1C488.2,219.7,488.9,219.6,488.1,219.8z"/>
			<path class="st4" d="M510.8,235.6c-1.6-0.9,2-1.7-29.1,29.2c1.9-1.7-26.6,23.6-111.3,78.4c-34.1,22.3-22.9,15.2-38.1,26.3
				c-46.3,34-96.8,54.6-96.9,54.6c-2,1.1-6,6.8,15.2-1c10.9-4,11.8-7.3,35.5-19.6c26-13.5,99.9-63.3,159.6-106.4
				c21.6-15.6,48.1-34.2,63.2-56.2C510.7,238.2,512.5,236.6,510.8,235.6z M415.4,316.4c0.2-0.1-0.5,0.4-1,0.8
				C414.2,317.2,413.7,317.5,415.4,316.4z"/>
			<path class="st4" d="M233.1,409.4C233.2,409.4,233.2,409.4,233.1,409.4C233.2,409.4,233.2,409.4,233.1,409.4
				C233.2,409.4,233.1,409.4,233.1,409.4z"/>
			<path class="st4" d="M278.7,373.9C278.7,374,278.6,374,278.7,373.9C278.7,373.9,278.7,373.9,278.7,373.9z"/>
			<path class="st4" d="M282.5,374.7C421.9,259.1,490.1,236.9,492,235.2c1.3-0.6,1.2-2,0.2-2.4c-1.4-0.6-11.7,4-11.9,4.1
				c-9.4,3.7-8.6,4-17,8.8c-77,39.2-80.7,47.7-140.8,91.6c-45.7,33.4-84.6,72.9-83.8,76C240,418.2,251.7,400.2,282.5,374.7z"/>
			<path class="st4" d="M481.7,264.8C481.6,264.9,481.5,265,481.7,264.8C481.7,264.8,481.7,264.8,481.7,264.8z"/>
		</g>
		<g>
			<path class="st2" d="M93.4,556.8c-7.2,2.7-14.5,10.6-12.4,12.4c3.1,8.3,13.8,14.9,22.2,12.9c3.7-0.9,6-4.2,5.9-4.8
				c-0.4-2.6-3.3,2.6-15.5-3.7c-6-3.5-3.7-2.4-1.1-1.8c11,2.3,25.7,0.4,11.2-3.6c-3-0.8-7.1-1.7-14.6-1.5c4.1-1.9,7.6-2.4,12.3-3
				c2.5-0.3,2-3.3-5.4-3.3c-2.1,0,5.7-1.8,11.3,1.2c0.7,0.5,2.4,1.6,2.4,1.6C114.8,565.8,107.6,551.5,93.4,556.8z M109.6,562.7
				C109.6,562.7,109.6,562.7,109.6,562.7C109.6,562.8,109.6,562.8,109.6,562.7z"/>
			<path class="st3" d="M-307.7,469.6c-0.3,1.6-0.2,2.2,1.3,3.1c5.1,3.3,7.8,4.7,13.7,7.3c19.8,8.6,13.8,1.1,17.2,12.9
				c10.5,36.2,74.9,68.8,109.9,77.2c34.2,8.2,72.3,18,119.4,22c26.5,2.3,113.2,3.9,129.2-14.9c44.3-52.1-256.6-113.5-313.5-114.3
				c-1.4,0-2.8-0.1-4.3-0.1c-7.5-0.2-15.2-0.7-22.6,0.8c-6.8,1.4-14.2,4.6-17.8,10.7c-0.4,0.7-0.8,2.6-1.5,3.2
				c-1.6,1.4-7.4-2.6-8.8-3.3C-296,469.3-306.3,462.8-307.7,469.6z"/>
			<path class="st4" d="M48.1,576C48,576,48,576,48.1,576C48,576,48.1,576,48.1,576z"/>
			<path class="st4" d="M22.9,577.9C22.8,577.9,22.8,577.9,22.9,577.9C22.9,577.9,22.9,577.9,22.9,577.9z"/>
			<path class="st4" d="M-150.1,557.5c-51.7-15.4-67.1-27.3-94.8-46.3c-20.9-14.3-20.6-19.3-22.9-19.2c-1.3-2.9-9.4-3.1,9.8,15.2
				c34.3,32.7,121.6,62,172.3,69.1c89.8,12.8,174.8-0.3,162.9-4.2c-0.6-1-1.7-0.5-2.4-0.4C18.7,583.2-71.6,580.8-150.1,557.5z
				 M-250.6,510.2c0.1,0,0.6,0.4,0.6,0.5C-250.6,510.1-251.2,509.7-250.6,510.2z"/>
			<path class="st4" d="M-253.8,482.7c0.4,1.8-2.6-0.4,41.2,2.3c-2.6-0.3,35.4,4.2,132.5,31c39.3,10.6,26.6,7,45,11
				c56.1,12,105.2,36,105.3,36.1c2.2,0.8,9-0.1-10.9-10.7c-10.2-5.4-13.3-4-38.3-13.5c-27.4-10.5-113.7-32.6-185.6-48.4
				c-26-5.8-57.5-13.1-84-9.8C-251.8,481.1-254.2,480.8-253.8,482.7z M-130,500.2c-0.2-0.1,0.6,0.1,1.3,0.2
				C-128.6,500.6-128.1,500.7-130,500.2z"/>
			<path class="st4" d="M60.7,574.4C60.7,574.4,60.7,574.4,60.7,574.4C60.7,574.4,60.7,574.4,60.7,574.4
				C60.7,574.4,60.7,574.4,60.7,574.4z"/>
			<path class="st4" d="M3.8,564C3.9,564,4,564,3.8,564C3.9,564,3.8,564,3.8,564z"/>
			<path class="st4" d="M1.9,560.7c-179.1-27.2-241-63.4-243.5-63.7c-1.3-0.6-2.2,0.4-1.9,1.4c0.4,1.4,10.8,6.1,10.9,6.1
				c9,4.5,8.7,3.7,17.9,6.9c80.5,31.4,89.3,28.5,162.1,44.2C2.7,567.7,58,570.5,59.8,567.8C62.7,563.5,41.4,566.7,1.9,560.7z"/>
			<path class="st4" d="M-212.6,485C-212.5,485-212.4,485-212.6,485C-212.6,485-212.6,485-212.6,485z"/>
		</g>
		<g>
			<path class="st4" d="M63-131.4c-4.7-1.8-10,6.7-12.2,11.2c-1.5,3.2-2.2,6.5-5.2,19c-5.9,23.8,1.3,24.5-14.8-10.5
				c-4.2-9.2-4.2-10.6-7.4-20.2c-3.9-11.4-9.6-9.1-10.4-3.5c-1.2,8.4,5.7,35.6,17.2,51.5c19.6,27.4-8-10.2-30.9-18.5
				c-4.3-1.6-11-3.5-12.2,1c-2.4,9.1,52.5,43.9,57.1,37.9c4.1-0.5,5.3-6.4,6.4-10.6C59.7-110,70.4-128.6,63-131.4z"/>
			<path class="st5" d="M90.6,87.2c6.1-2.1,12.1-4.5,18.1-7.1c21.2-9.2,41.8-21.4,57.5-38.5c19.1-20.9,30.6-55,22.3-83.2
				c-6-20.4-22.1-38.6-38.8-51.4c-11.2-8.6-33.6-16.3-50.9-12.6c-15.2,3.3-23.8,11-26.5,12.4C57-85.3,45-64.8,44.5-63.5
				c-1,1.4-9.5-8.8-28.4-7.4c-44,3-76.5,30.8-71.3,88.5c3.7,40.7,44.2,68.5,81.5,75.7C48.8,97.6,69.9,94.3,90.6,87.2z"/>
			<g>
				<path class="st2" d="M143.3-37.1c-5.8-37.1-42-44.3-59.9-25.9c-6.8,7-6,15.1-3.6,23.9c6.4,23.4,13.7,47.4,23.4,69.6
					c4.9,11.2,5.9,16.7,12.5,14.3C127.5,40.6,149.2,0.1,143.3-37.1z"/>
				<path class="st6" d="M98-44.1c0,0.2-0.1,0.4-0.1,0.6c-0.3,1.8,1.8,2.4,3.1,1.7c3.7-1.8,7.6-4.1,10-7.6c1.2-1.8,2-4.3,0.9-6.3
					c-0.8-1.7-2.6-2.5-4.5-2.3c-2.7,0.3-4.8,2.4-6.2,4.5c-0.8,1.3-1.5,2.6-2,4.1C98.6-47.7,98.3-45.9,98-44.1z"/>
				<path class="st6" d="M114.2-25.7c-9.4,6.3-8.4,10.4,1.1,9.2C134.8-18.8,124.7-32.8,114.2-25.7z"/>
				<path class="st6" d="M125.5,11.3c-1.8-5.9-11.4-5.5-13.9-5.7c-4.1-0.3-4.3,2.8-2.1,5.2C119.6,21.9,127.5,17.7,125.5,11.3z"/>
			</g>
			<g>
				<path class="st2" d="M66.9,35.3c-1.7-3.1-3.4-6.2-5.1-9.2c-3.6-6.4-6.3-12.9-9.4-19.6C47.8-3.7,42.3-13.4,37.5-23.4
					c-3.3-7-9.5-11.8-12.8-13.6c-7.6-4.1-39.6-1.4-38.1,31C-12.5,13.1-4.2,22,8.9,35c15.4,15.2,34.5,21.4,52.8,22
					c5.7,0.2,13.9,0.9,11.6-7C71.7,44.8,69.4,40,66.9,35.3z"/>
				<path class="st6" d="M49.5,29.2c-1.1,0.1-1.5,0.9-2.7,2.7c-11.2,16.3,1.7,20.7,4.8,13.2C53.2,41.3,54.1,28.7,49.5,29.2z"/>
				<path class="st6" d="M31.8,19.2c-2.2,0.3-11.2,5.6-12.3,9.4c-0.9,3.3,0.9,6,4.8,5.1C29,32.4,37.8,18.4,31.8,19.2z"/>
				<path class="st6" d="M6.7,3.5c-5.7,3.6-3.4,12.4,6,6.6C29.4-0.1,14.3-1.3,6.7,3.5z"/>
				<path class="st6" d="M7-11.4c30.3-2.2-19.2-19.2-9.2-3.7C-0.8-12.9,2.5-11,7-11.4z M14.5-17.1C14.5-17.1,14.5-17.1,14.5-17.1
					C14.5-17.1,14.5-17.1,14.5-17.1C14.5-17.1,14.5-17.1,14.5-17.1z"/>
			</g>
		</g>
		<g>
			<path class="st4" d="M299.9,160c-3.1-4-22.4,5.4-33.3,8.7c-35,10.6-10.1,11.9-47.3-0.3c-9.8-3.2-17.6-5.8-30.8-6.5
				c3.5-2.5,6.9-2.9,11.2-2.7c10.8,0.6,0.8-11.5-13.2-1.6c-3.8,2.7-3.7,3.7-4.1,4c-0.1,0.1-8.1,0.5-8.2,0.5c-2.4-0.1-3,4.4,0.9,4
				c11.5,0,2.8-0.1,10.6,8c1.7,1.8,7.5,3.4,7.7,3.5c2.3,0.1,3.6-3,0.4-4.1c-1.4-0.5-4.3-2.9-6.3-6.3c10,1.7,23.8,1.9,48.5,13.1
				c-38.6,16.3-73.7,40.7-109.9,66.8c-5.4-2-19.1-3.7-25.6-3.7c-15.3,0-17.8,1.4-24,2.4c0.2-1.3,1.2-4.1,2.3-5.8
				c6.9-10.5,16.4-10.3,13.2-12.8c-2.9-2.4-12.3,1.7-18.6,9.1c-5.3,6.3-3.5,11.2-6.3,11.8c0.6-0.2-2,0.4-1.2,2.6
				c0.3,0.9,1.2,1.5,2.7,1.1c0.2,0-0.1-0.3,0.5,2.4c1.3,6.4,9.6,12.4,11,8.2c0.6-1.7-1.2-2.8-2.6-4.4c-0.6-0.7-0.3,0,3,0.3
				c4.9,0.4,8.8-2.8,5.8-4.8c-0.7-0.4-3.6-0.9-7-2.9c0-0.1,21.6-2.7,39.1,1.1c7.1,1.6-62.9,35-92,89c0.6-3.6-0.5-10.9-1.7-14.3
				c-0.4-1.1-0.5-2.5-1.6-3.2c-1.6-0.9-3.5,0.7-2.8,2.5c0.8,2.3,1.5,9.6-0.4,18.5c-2.1,9.5-1.1,12.1-2.3,6.6
				c0-0.2-4.6-21.9-4.7-22.1c-0.8-1.7-4.3-2.3-4.6,3.6c-0.8,14.7,8.7,29.7,7.8,32c-0.4,1-0.8,1.8-0.5,2.7c0.6,1.6,2.9,1.7,3.7,0
				c1-2.1,0.4-1.3,3-1.7c9.5-1.5,25.3-19.3,19.5-22.5c-4.5-2.4,0,4.7-14.8,13c-1.9,1-1.8,1.4,0.3-2.3C40.7,328.9,52.9,310,87.6,283
				c4.5,11.6,6.5,22.4,7.8,35c-9.7-16.2-12.8-9.5-10.7-6.9c4.7,5.9,5.3,6,7.9,11.2c2.2,4.3,3.3,4.7-4,0.3c-9.7-5.8-12-14-15.2-12.2
				c-3.7,2,2.2,13.4,25.3,23.2c0.5,0.2,4.4,0.1,7.9-1.6c12.5-6.1,13.8-16.7,10.7-18.4c-1.1-0.6-2.6-0.3-3.2,2
				c-1.1,3.9-1.7,5.4-9.3,9.6c3-7.3,3.6-20.5-1.3-20.9c-4.7,0.2,0.6,4.9-3,14.8c-0.5-12.8-2.8-27.3-8.9-39
				c37.1-26.2,31.1-22.8,33.1-24.3c7.8-5.6,13.6-8.7,24.4-16.4c31.4-22.7,39.8-28.6,49.5-33.3c2.8,11.4,3.7,30.8,2.6,43.6
				c-4.7-0.8-5.3-3.1-6.4-3.6c-1.8-3-4.7-8.6-7.4-6.3c-1.4,1.2-0.8,3-0.3,4.9c1.7,5.8,6.2,7.9-0.6,4.3c-4.8-3.1-7.9-7.5-9.4-8.6
				c-2.9-2-5.1-0.2-5.2,1.4c-0.2,11.5,22.7,22.1,46,9.7c4.1-2.2,15.8-13.5,11.9-16.2c-3.4-2.5-1.6,3.7-12.7,10.9
				c-5.8,3.5-3.8,2.1-2.1-1.1c0.3-0.6,3-5.6,2.8-6.7c-0.2-1.5-2.5-2.9-4.1,0.1c-1,2-0.8,2.5-4.6,6.6c-6.9,6.9,0.5,5.1-4.2-36.4
				c-0.8-7.3-2.8-3.9,4.6-8.5C246.8,176.7,306.2,168.4,299.9,160z M24,325.1C24,325.1,24,325.1,24,325.1C24,325.1,24,325.1,24,325.1
				C24,325.1,24,325.1,24,325.1z M12.3,331C12.3,331,12.3,331,12.3,331C12.4,330.9,12.4,330.8,12.3,331z M26.3,340.3c0,0,0,0,0,0.2
				C26.3,340.1,26.4,339.9,26.3,340.3z"/>
			<path class="st7" d="M226.8,191C226.8,191,226.9,190.9,226.8,191C226.9,190.9,226.9,191,226.8,191C226.8,191,226.8,191,226.8,191
				z"/>
			<path class="st7" d="M227,190.9c-0.1,0-0.1,0-0.2,0.1C226.9,190.9,227,190.9,227,190.9z"/>
			<path class="st7" d="M92.2,281.4C92.2,281.3,92.1,281.3,92.2,281.4C92.2,281.4,92.2,281.4,92.2,281.4z"/>
			<polygon class="st7" points="97.3,295.4 97.3,295.4 97.3,295.4 			"/>
			<path class="st7" d="M92.2,281.4C92.1,281.3,92.1,281.2,92.2,281.4C92.1,281.3,92.2,281.3,92.2,281.4z"/>
			<path class="st7" d="M205.8,217.7c0,0.1,0,0.2,0,0.3C205.9,218,205.8,217.8,205.8,217.7z"/>
			<path class="st7" d="M189.2,249.2c-0.1-0.2-0.2-0.3-0.3-0.4C189,248.9,189.1,249.1,189.2,249.2z"/>
			<path class="st8" d="M168.6,310.1c15.1,10.4,38.2,14.9,54.7,5.1c11.5-6.8,19.7-21.6,17.8-35.1c0-0.1,0-0.2,0-0.3
				c-2.7-16.1-19.5-26.7-34.4-28c-8.4-0.7-18.5-1.6-25.9,2.7c-10.6,6.2-20.5,16.9-23.5,29.5C154.9,294.4,160.1,304.2,168.6,310.1z"
				/>
			<path class="st8" d="M123.4,177.7c5.7,7.5,15.9,11.9,25.4,12.2c15.3,0.5,30.2-8.9,35.5-23.4c2.5-6.6,2.6-13.9,0.4-20.7
				c-5.2-16.5-23.9-22.1-39.3-17.4c-14.3,4.3-26,19.3-26.8,34.2C118.4,168.5,120.2,173.6,123.4,177.7z"/>
			<path class="st8" d="M93.6,329.9c-3.2,1.2-19.1,12.4-22.7,30.9c-2.3,12-2,26.8,6.5,36.5c9.9,11.3,28.7,10.6,41.8,6.7
				c18.4-5.4,36.9-30.8,26.4-54.5C138.9,333.8,114.4,322.4,93.6,329.9z"/>
			<path class="st8" d="M-22.5,431.6c7.1,2.5,14.9,3.4,22.2,2.8c7.7-0.6,15.5-2.2,21.4-7.3c6.7-5.8,11-14.1,13.1-22.6
				c1.3-5.1,1.8-10.5,1.4-15.7c-0.4-5.9-2-11.8-4.6-17.1c-0.9-1.8-2-3.9-3.4-5.4c-7.5-7.8-21.3-12.5-31.9-11.7
				c-27.3,2-49.7,30.6-39.3,57.5C-39.8,422-31.8,428.3-22.5,431.6z"/>
			<path class="st8" d="M13.2,284.4c8.7,8.1,17,10.2,28.2,6.3c5.7-2,11.6-4,16.1-8.1c4.1-3.8,7.3-8.3,9.9-13.2
				c3.2-5.9,6.6-13.2,7.1-20c0.9-12.2-6.3-25.4-14.7-30.7c-10.5-6.7-22.2-8-28.8-5.4C17.2,218.6,2,234.9-0.1,250.5
				C-1.8,264-0.3,272.5,13.2,284.4z"/>
		</g>
		<g>
			<path class="st5" d="M383.5,457.5c-1.3,3.6-13.4,78.4-14,82.2c-3.2,22.6-22.2,100.6-23.5,110.1c-1.8,12.9-8.3,29.1,9.6,28.1
				c27.6-1.4,43.8-14.1,64.1-33.1c0.7-0.5,13.1-13,16.4-17c24.9-30,35.2-77.6,15.8-113.3c-4.9-9-10.2-18-16.7-25.9
				c-8.9-10.9-16.8-17.1-26.8-23.6c-4.4-2.8-18.9-9.8-22.5-9.7C384.8,455.3,384,456.4,383.5,457.5z"/>
			<path class="st9" d="M435.2,488.6C435.2,488.6,435.3,488.7,435.2,488.6C435.3,488.8,435.3,488.7,435.2,488.6z"/>
			<g>
				<path class="st2" d="M399.7,503c-2,17.7,17.4,49.8-6.7,99.9c-6.3,13-9.1,14.3-17.2,28.4c-3.7,6.5-1.8,14.3,5.5,13.5
					c15.1-1.6,36.8-26.8,40.1-33.6c0.1,0,15.9-25.7,15.3-51.1c-0.1-14.5-10.1-45.2-22.1-57.5C405.6,493.2,400.5,496.1,399.7,503z"/>
				<path class="st6" d="M410.2,518c-1.1,1.8-2.6,3.6-1,4.9c1,0.8,1.8,0.3,2.6-0.1c2.8-1.5,6.9-3.1,6.4-7.1
					C417.8,513,414.4,511.1,410.2,518z"/>
				<path class="st6" d="M420.2,549c9.3-0.1,9-7.6,2.2-7.8C416.9,541,408.2,549,420.2,549z"/>
				<path class="st6" d="M416.4,572.6c-1.2,1.9,1,2.9,2.9,3.9c3.2,1.7,6.1,4.1,8.7,1.5C433,573,418.9,568.8,416.4,572.6z"/>
				<path class="st6" d="M407.3,600.4c-0.8,3.9,7.1,12.7,8.9,6.6C417.6,602.4,408.2,596.2,407.3,600.4z"/>
				<path class="st6" d="M395,632.1c-0.2-0.2-0.1-0.1-0.2-0.3C394.8,632,394.9,632.1,395,632.1z"/>
				<path class="st6" d="M398.6,625.4c-0.6-2.8-3-6.8-5-4.5c-1.5,1.7-0.9,7.6,0.3,9C395.9,632.2,400,631.3,398.6,625.4z"/>
			</g>
		</g>
		<g>
			<path class="st8" d="M460.6,103.1c-2.4-3-59.3-53-62.2-55.5C381,33,324.9-24.7,317.5-30.8c-10-8.3-20.3-22.5-28.9-6.8
				c-13.5,24.1-11.3,44.6-6.1,71.9c0.1,0.8,4.1,18,5.7,22.9c12.2,37,47.1,71,87.6,73.5c10.2,0.6,20.7,0.9,30.8-0.4
				c14-1.8,23.4-5.1,34.3-10.2c4.7-2.2,18.3-10.8,20.2-13.9C461.8,105.3,461.3,104.1,460.6,103.1z"/>
			<path class="st9" d="M406.8,130.4C406.8,130.4,406.7,130.4,406.8,130.4C406.6,130.4,406.7,130.4,406.8,130.4z"/>
			<g>
				<path class="st10" d="M413.5,92.7c-13.9-11.1-51.4-11.7-81.1-58.8c-7.7-12.2-7.2-15.3-14.9-29.6c-3.6-6.6-11.2-9.1-14.4-2.5
					c-6.6,13.6,3.1,45.4,7.2,51.9c-0.1,0,13.3,27.2,35.2,40.1c12.4,7.6,43.6,15.5,60.5,11.8C418.7,102.8,418.9,97,413.5,92.7z"/>
				<path class="st6" d="M395.2,93.5c-0.9-1.9-1.7-4.1-3.7-3.4c-1.2,0.4-1.2,1.3-1.3,2.2c-0.3,3.2-1,7.4,2.6,9.2
					C395.3,102.6,398.8,100.8,395.2,93.5z"/>
				<path class="st6" d="M363.6,85.6c-4.9,8,1.7,11.7,5.4,6C372.1,87,369.9,75.4,363.6,85.6z"/>
				<path class="st6" d="M345.6,69.8c-1-2.1-3-0.6-4.8,0.4c-3.2,1.8-6.7,3-5.9,6.6C336.5,83.7,347.6,73.9,345.6,69.8z"/>
				<path class="st6" d="M326.9,47.4c-2.9-2.7-14.5-0.8-10.3,4.1C319.7,55,330,50.3,326.9,47.4z"/>
				<path class="st6" d="M306.6,20c0.2,0,0.1,0,0.3-0.1C306.8,20,306.7,20,306.6,20z"/>
				<path class="st6" d="M310.4,26.7c2.7,1,7.3,1.1,6.4-1.8c-0.6-2.2-5.9-4.8-7.8-4.6C306,20.8,304.6,24.7,310.4,26.7z"/>
			</g>
		</g>
		<g>
			<path class="st4" d="M667.1,153.5c-0.1-0.1,0.5-0.3,0.6-0.3c2.3-0.5,34.9,38.3,44.4,51.3c5.7,7.8,14.7,21.3,14.6,21.1
				c0,0,25.1,30.9,34.1,44.5c1.3,1.9,2,3-0.1,4c-5.7,2.7-4.4,2.6-8.9-1.1c-6.2-5.1-11.2-13.4-16.3-19.6
				c-15.6-19.3-29.9-39.5-45.8-58.4c-5.2-6.2-29.6-29.1-25.8-38.5C665.6,152.1,666.6,153.5,667.1,153.5z"/>
			<path class="st4" d="M660.7,165.2c0.3-0.3,0.8-0.5,1.3-0.3c2.2,1.3,4.3,7.5,5.5,9.6c4.1,7.3,8.3,14.6,12.4,21.8
				c14.7,26,28.3,52.1,41.1,79.1c3.9,8.3,8,13.3-0.6,12.5c-8.9-0.8-4.4,4-13.3-14.5c-30.3-62.8-53.1-101.7-52.6-105.1
				C654.8,166.2,659.1,164.4,660.7,165.2z"/>
			<path class="st4" d="M649,165.6c4.8,2.6,7.6,15.8,9.3,20.5c6.3,16.9,12.1,33.7,18.8,50.5c1.6,3.9,14.6,30.2,10.6,33.7
				c-1.1,1.2-4.1,0.3-5.7-0.2c-13.9-4.6-9.7,0.6-13.1-12.1c-6-22.1-11.7-44.3-17.7-66.4c-1.9-6.9-8.3-16.8-8.3-23.7
				C642.9,162.6,643.4,162.5,649,165.6z"/>
			<g>
				<defs>
					<path id="SVGID_3_" d="M497.4-110.2c7.5-1.6,11.2,2.3,16.9,9c16.6,19.4,33.9,38,48,59.5c27.4,42,58.1,83.2,82.3,127.1
						c3.1,5.6,5.7,10.5,8.7,15.4c25,37.7,18.1,62.3,18.6,58.2c-2.4,21.6-22.1,20.5-26.1,18.7c-11.7,0-32.8-18.9-39.9-28
						c-10.6-13.8-18.5-29.7-27.5-44.6c-18.4-30.4-31.2-62.5-45.1-95c-12.4-29-25.3-58.1-34.8-88.3c-2.4-7.5-5.1-15.6-5.3-23.5
						C493.1-110.5,497.8-110.2,497.4-110.2z"/>
				</defs>
				<use xlink:href="#SVGID_3_"  style="overflow:visible;fill:#FFB03B;"/>
				<clipPath id="SVGID_4_">
					<use xlink:href="#SVGID_3_"  style="overflow:visible;"/>
				</clipPath>
				<g class="st11">
					<path class="st12" d="M530.5-93.4c1-0.1,1.8,1.2,0.9,2.1c-0.9,0.9-7.6,0.3-12.6,3.8c-1,0.7-5.2-1.1,3.2-4.3
						C524.5-92.7,530.8-93.5,530.5-93.4z"/>
					<path class="st12" d="M518.8-59c0.7,2.2-0.9,0-14.5,7.7c-1.5,0.9-2.6-1.4-1.3-2.1C519.7-62.8,518.9-59,518.8-59z"/>
					<path class="st12" d="M574.9-37c0.8,2.5-2.6,0.1-17.6,8.7c-1.5,0.9-2.7-1.4-1.3-2.1C574.2-40.7,575.7-37.2,574.9-37z"/>
					<path class="st12" d="M569.4,9.8c0.6,0.3,0.9,1.1,0.5,1.7c-0.7,1.3-4.4,1.1-12.5,6.7c-1.3,0.9-2.8-1.1-1.3-2.1
						C565.7,9.5,569.8,9.7,569.4,9.8z"/>
					<path class="st12" d="M568.4,57.4c0.6,1.9-1.8,1.2-7.7,4.6c-13,7.5-16.1,12.7-17.5,10.4c-0.7-1.2,0.4-1.7,4.1-4.4
						C569.5,52.1,568.4,57.4,568.4,57.4z"/>
					<path class="st12" d="M646.4,70.5c0.8,2.7-4.7,0.7-18.9,10.5c-1.2,0.9-2.8-1.1-1.3-2.1c7.3-5.1,12.7-7.3,18.6-9.2
						C645.8,69.3,646.5,70.5,646.4,70.5z"/>
					<path class="st12" d="M602.8,118c-0.9,0.2-19.7,9.4-18.2,11.9c1.5,2.4,3.8-2.9,18-9.1c0.8-0.4,1.2-0.5,1.5-0.9
						C604.6,118.9,603.8,117.8,602.8,118z M602.8,120.7C602.5,120.9,602.4,120.9,602.8,120.7L602.8,120.7z M600.9,121.6
						C600.8,121.6,600.7,121.7,600.9,121.6L600.9,121.6z M600.7,121.7C600.7,121.7,600.7,121.7,600.7,121.7
						C600.7,121.7,600.7,121.7,600.7,121.7L600.7,121.7z M602.7,120.8C602.8,120.7,602.8,120.8,602.7,120.8
						C602.7,120.8,602.7,120.8,602.7,120.8L602.7,120.8z M599.5,119.5C599.7,119.4,599.7,119.4,599.5,119.5L599.5,119.5z
						 M599.8,119.4C599.8,119.4,599.8,119.4,599.8,119.4C599.6,119.4,599.6,119.4,599.8,119.4L599.8,119.4z M599.8,119.4
						C599.8,119.4,599.8,119.4,599.8,119.4C600.2,119.3,599.3,119.6,599.8,119.4z M601.6,118.6C601.7,118.5,601.7,118.5,601.6,118.6
						L601.6,118.6z M601.6,118.5C601.6,118.5,601.7,118.5,601.6,118.5C601.8,118.5,601.7,118.5,601.6,118.5z M601.6,118.6
						C601.8,118.5,601.8,118.5,601.6,118.6L601.6,118.6z"/>
					<path class="st12" d="M650.6,133.3c-13.7,2.9-10.4,7.3-8.3,6.1c7.5-4.5,10.5-2.9,9.8-5.2C652.2,134.2,651.6,133.1,650.6,133.3z
						 M646.1,137.3C646,137.4,645.9,137.4,646.1,137.3L646.1,137.3z"/>
					<path class="st12" d="M607.9,47.5c-1.4,0.8-0.1,3,1.3,2.1c8.5-5,13-6.3,18.6-7.1c1.9-0.3,1.3-2.7-0.1-2.5
						C627.8,40,620.7,39.9,607.9,47.5z M617.2,45.5C617,45.5,617,45.5,617.2,45.5L617.2,45.5z"/>
					<path class="st12" d="M524.7-36.4c1.2,0.3,1.2,1.9,0.4,2.3c-6.3,3.1-4.3,2.3-9.4,5.3c-1.4,0.9-2.7-1.3-1.3-2.1
						C525.5-37.6,524.8-36.4,524.7-36.4z"/>
					<path class="st12" d="M600.4,88.1c-0.4,0.8-1.3,0.7-6.1,2.8c-6.9,3.1-8.7,6-9.8,4.1c-0.8-1.3,0.9-1.9,2.2-2.8
						C591.1,89.3,602.8,83.6,600.4,88.1z"/>
				</g>
			</g>
		</g>
		<g>
			<path class="st4" d="M863-131.4c-4.7-1.8-10,6.7-12.2,11.2c-1.5,3.2-2.2,6.5-5.2,19c-5.9,23.8,1.3,24.5-14.8-10.5
				c-4.2-9.2-4.2-10.6-7.4-20.2c-3.9-11.4-9.6-9.1-10.4-3.5c-1.2,8.4,5.7,35.6,17.2,51.5c19.6,27.4-8-10.2-30.9-18.5
				c-4.3-1.6-11-3.5-12.2,1c-2.4,9.1,52.5,43.9,57.1,37.9c4.1-0.5,5.3-6.4,6.4-10.6C859.7-110,870.4-128.6,863-131.4z"/>
			<path class="st5" d="M890.6,87.2c6.1-2.1,12.1-4.5,18.1-7.1c21.2-9.2,41.8-21.4,57.5-38.5c19.1-20.9,30.6-55,22.3-83.2
				c-6-20.4-22.1-38.6-38.8-51.4c-11.2-8.6-33.6-16.3-50.9-12.6c-15.2,3.3-23.8,11-26.5,12.4C857-85.3,845-64.8,844.5-63.5
				c-1,1.4-9.5-8.8-28.4-7.4c-44,3-76.5,30.8-71.3,88.5c3.7,40.7,44.2,68.5,81.5,75.7C848.8,97.6,869.9,94.3,890.6,87.2z"/>
			<g>
				<path class="st2" d="M943.3-37.1c-5.8-37.1-42-44.3-59.9-25.9c-6.8,7-6,15.1-3.6,23.9c6.4,23.4,13.7,47.4,23.4,69.6
					c4.9,11.2,5.9,16.7,12.5,14.3C927.5,40.6,949.2,0.1,943.3-37.1z"/>
				<path class="st6" d="M898-44.1c0,0.2-0.1,0.4-0.1,0.6c-0.3,1.8,1.8,2.4,3.1,1.7c3.7-1.8,7.6-4.1,10-7.6c1.2-1.8,2-4.3,0.9-6.3
					c-0.8-1.7-2.6-2.5-4.5-2.3c-2.7,0.3-4.8,2.4-6.2,4.5c-0.8,1.3-1.5,2.6-2,4.1C898.6-47.7,898.3-45.9,898-44.1z"/>
				<path class="st6" d="M914.2-25.7c-9.4,6.3-8.4,10.4,1.1,9.2C934.8-18.8,924.7-32.8,914.2-25.7z"/>
				<path class="st6" d="M925.5,11.3c-1.8-5.9-11.4-5.5-13.9-5.7c-4.1-0.3-4.3,2.8-2.1,5.2C919.6,21.9,927.5,17.7,925.5,11.3z"/>
			</g>
			<g>
				<path class="st2" d="M866.9,35.3c-1.7-3.1-3.4-6.2-5.1-9.2c-3.6-6.4-6.3-12.9-9.4-19.6c-4.6-10.1-10.1-19.8-14.9-29.9
					c-3.3-7-9.5-11.8-12.8-13.6c-7.6-4.1-39.6-1.4-38.1,31c0.9,19,9.2,27.9,22.3,40.9c15.4,15.2,34.5,21.4,52.8,22
					c5.7,0.2,13.9,0.9,11.6-7C871.7,44.8,869.4,40,866.9,35.3z"/>
				<path class="st6" d="M849.5,29.2c-1.1,0.1-1.5,0.9-2.7,2.7c-11.2,16.3,1.7,20.7,4.8,13.2C853.2,41.3,854.1,28.7,849.5,29.2z"/>
				<path class="st6" d="M831.8,19.2c-2.2,0.3-11.2,5.6-12.3,9.4c-0.9,3.3,0.9,6,4.8,5.1C829,32.4,837.8,18.4,831.8,19.2z"/>
				<path class="st6" d="M806.7,3.5c-5.7,3.6-3.4,12.4,6,6.6C829.4-0.1,814.3-1.3,806.7,3.5z"/>
				<path class="st6" d="M807-11.4c30.3-2.2-19.2-19.2-9.2-3.7C799.2-12.9,802.5-11,807-11.4z M814.5-17.1
					C814.5-17.1,814.5-17.1,814.5-17.1C814.5-17.1,814.5-17.1,814.5-17.1C814.5-17.1,814.5-17.1,814.5-17.1z"/>
			</g>
		</g>
		<g>
			<path class="st4" d="M63,668.6c-4.7-1.8-10,6.7-12.2,11.2c-1.5,3.2-2.2,6.5-5.2,19c-5.9,23.8,1.3,24.5-14.8-10.5
				c-4.2-9.2-4.2-10.6-7.4-20.2c-3.9-11.4-9.6-9.1-10.4-3.5c-1.2,8.4,5.7,35.6,17.2,51.5c19.6,27.4-8-10.2-30.9-18.5
				c-4.3-1.6-11-3.5-12.2,1c-2.4,9.1,52.5,43.9,57.1,37.9c4.1-0.5,5.3-6.4,6.4-10.6C59.7,690,70.4,671.4,63,668.6z"/>
			<path class="st5" d="M90.6,887.2c6.1-2.1,12.1-4.5,18.1-7.1c21.2-9.2,41.8-21.4,57.5-38.5c19.1-20.9,30.6-55,22.3-83.2
				c-6-20.4-22.1-38.6-38.8-51.4c-11.2-8.6-33.6-16.3-50.9-12.6c-15.2,3.3-23.8,11-26.5,12.4C57,714.7,45,735.2,44.5,736.5
				c-1,1.4-9.5-8.8-28.4-7.4c-44,3-76.5,30.8-71.3,88.5c3.7,40.7,44.2,68.5,81.5,75.7C48.8,897.6,69.9,894.3,90.6,887.2z"/>
			<g>
				<path class="st2" d="M143.3,762.9c-5.8-37.1-42-44.3-59.9-25.9c-6.8,7-6,15.1-3.6,23.9c6.4,23.4,13.7,47.4,23.4,69.6
					c4.9,11.2,5.9,16.7,12.5,14.3C127.5,840.6,149.2,800.1,143.3,762.9z"/>
				<path class="st6" d="M98,755.9c0,0.2-0.1,0.4-0.1,0.6c-0.3,1.8,1.8,2.4,3.1,1.7c3.7-1.8,7.6-4.1,10-7.6c1.2-1.8,2-4.3,0.9-6.3
					c-0.8-1.7-2.6-2.5-4.5-2.3c-2.7,0.3-4.8,2.4-6.2,4.5c-0.8,1.3-1.5,2.6-2,4.1C98.6,752.3,98.3,754.1,98,755.9z"/>
				<path class="st6" d="M114.2,774.3c-9.4,6.3-8.4,10.4,1.1,9.2C134.8,781.2,124.7,767.2,114.2,774.3z"/>
				<path class="st6" d="M125.5,811.3c-1.8-5.9-11.4-5.5-13.9-5.7c-4.1-0.3-4.3,2.8-2.1,5.2C119.6,821.9,127.5,817.7,125.5,811.3z"
					/>
			</g>
			<g>
				<path class="st2" d="M66.9,835.3c-1.7-3.1-3.4-6.2-5.1-9.2c-3.6-6.4-6.3-12.9-9.4-19.6c-4.6-10.1-10.1-19.8-14.9-29.9
					c-3.3-7-9.5-11.8-12.8-13.6c-7.6-4.1-39.6-1.4-38.1,31c0.9,19,9.2,27.9,22.3,40.9c15.4,15.2,34.5,21.4,52.8,22
					c5.7,0.2,13.9,0.9,11.6-7C71.7,844.8,69.4,840,66.9,835.3z"/>
				<path class="st6" d="M49.5,829.2c-1.1,0.1-1.5,0.9-2.7,2.7c-11.2,16.3,1.7,20.7,4.8,13.2C53.2,841.3,54.1,828.7,49.5,829.2z"/>
				<path class="st6" d="M31.8,819.2c-2.2,0.3-11.2,5.6-12.3,9.4c-0.9,3.3,0.9,6,4.8,5.1C29,832.4,37.8,818.4,31.8,819.2z"/>
				<path class="st6" d="M6.7,803.5c-5.7,3.6-3.4,12.4,6,6.6C29.4,799.9,14.3,798.7,6.7,803.5z"/>
				<path class="st6" d="M7,788.6c30.3-2.2-19.2-19.2-9.2-3.7C-0.8,787.1,2.5,789,7,788.6z M14.5,782.8
					C14.5,782.9,14.5,782.9,14.5,782.8C14.5,782.9,14.5,782.9,14.5,782.8C14.5,782.9,14.5,782.9,14.5,782.8z"/>
			</g>
		</g>
		<g>
			<path class="st4" d="M667.1,953.5c-0.1-0.1,0.5-0.3,0.6-0.3c2.3-0.5,34.9,38.3,44.4,51.3c5.7,7.8,14.7,21.3,14.6,21.1
				c0,0,25.1,30.9,34.1,44.5c1.3,1.9,2,3-0.1,4c-5.7,2.7-4.4,2.6-8.9-1.1c-6.2-5.1-11.2-13.4-16.3-19.6
				c-15.6-19.3-29.9-39.5-45.8-58.4c-5.2-6.2-29.6-29.1-25.8-38.5C665.6,952.1,666.6,953.5,667.1,953.5z"/>
			<path class="st4" d="M660.7,965.2c0.3-0.3,0.8-0.5,1.3-0.3c2.2,1.3,4.3,7.5,5.5,9.6c4.1,7.3,8.3,14.6,12.4,21.8
				c14.7,26,28.3,52.1,41.1,79.1c3.9,8.3,8,13.3-0.6,12.5c-8.9-0.8-4.4,4-13.3-14.5c-30.3-62.8-53.1-101.7-52.6-105.1
				C654.8,966.2,659.1,964.4,660.7,965.2z"/>
			<path class="st4" d="M649,965.6c4.8,2.6,7.6,15.8,9.3,20.5c6.3,16.9,12.1,33.7,18.8,50.5c1.6,3.9,14.6,30.2,10.6,33.7
				c-1.1,1.2-4.1,0.3-5.7-0.2c-13.9-4.6-9.7,0.6-13.1-12.1c-6-22.1-11.7-44.3-17.7-66.4c-1.9-6.9-8.3-16.8-8.3-23.7
				C642.9,962.6,643.4,962.5,649,965.6z"/>
			<g>
				<defs>
					<path id="SVGID_5_" d="M497.4,689.8c7.5-1.6,11.2,2.3,16.9,9c16.6,19.4,33.9,38,48,59.5c27.4,42,58.1,83.2,82.3,127.1
						c3.1,5.6,5.7,10.5,8.7,15.4c25,37.7,18.1,62.3,18.6,58.2c-2.4,21.6-22.1,20.5-26.1,18.7c-11.7,0-32.8-18.9-39.9-28
						c-10.6-13.8-18.5-29.7-27.5-44.6c-18.4-30.4-31.2-62.5-45.1-95c-12.4-29-25.3-58.1-34.8-88.3c-2.4-7.5-5.1-15.6-5.3-23.5
						C493.1,689.5,497.8,689.8,497.4,689.8z"/>
				</defs>
				<use xlink:href="#SVGID_5_"  style="overflow:visible;fill:#FFB03B;"/>
				<clipPath id="SVGID_6_">
					<use xlink:href="#SVGID_5_"  style="overflow:visible;"/>
				</clipPath>
				<g class="st13">
					<path class="st12" d="M530.5,706.6c1-0.1,1.8,1.2,0.9,2.1c-0.9,0.9-7.6,0.3-12.6,3.8c-1,0.7-5.2-1.1,3.2-4.3
						C524.5,707.3,530.8,706.5,530.5,706.6z"/>
					<path class="st12" d="M518.8,741c0.7,2.2-0.9,0-14.5,7.7c-1.5,0.9-2.6-1.4-1.3-2.1C519.7,737.2,518.9,741,518.8,741z"/>
					<path class="st12" d="M574.9,763c0.8,2.5-2.6,0.1-17.6,8.7c-1.5,0.9-2.7-1.4-1.3-2.1C574.2,759.3,575.7,762.8,574.9,763z"/>
					<path class="st12" d="M569.4,809.8c0.6,0.3,0.9,1.1,0.5,1.7c-0.7,1.3-4.4,1.1-12.5,6.7c-1.3,0.9-2.8-1.1-1.3-2.1
						C565.7,809.5,569.8,809.7,569.4,809.8z"/>
					<path class="st12" d="M568.4,857.4c0.6,1.9-1.8,1.2-7.7,4.6c-13,7.5-16.1,12.7-17.5,10.4c-0.7-1.2,0.4-1.7,4.1-4.4
						C569.5,852.1,568.4,857.4,568.4,857.4z"/>
					<path class="st12" d="M646.4,870.5c0.8,2.7-4.7,0.7-18.9,10.5c-1.2,0.9-2.8-1.1-1.3-2.1c7.3-5.1,12.7-7.3,18.6-9.2
						C645.8,869.3,646.5,870.5,646.4,870.5z"/>
					<path class="st12" d="M602.8,918c-0.9,0.2-19.7,9.4-18.2,11.9c1.5,2.4,3.8-2.9,18-9.1c0.8-0.4,1.2-0.5,1.5-0.9
						C604.6,918.9,603.8,917.8,602.8,918z M602.8,920.7C602.5,920.9,602.4,920.9,602.8,920.7L602.8,920.7z M600.9,921.6
						C600.8,921.6,600.7,921.7,600.9,921.6L600.9,921.6z M600.7,921.7C600.7,921.7,600.7,921.7,600.7,921.7
						C600.7,921.7,600.7,921.7,600.7,921.7L600.7,921.7z M602.7,920.8C602.8,920.7,602.8,920.8,602.7,920.8
						C602.7,920.8,602.7,920.8,602.7,920.8L602.7,920.8z M599.5,919.5C599.7,919.4,599.7,919.4,599.5,919.5L599.5,919.5z
						 M599.8,919.4C599.8,919.4,599.8,919.4,599.8,919.4C599.6,919.4,599.6,919.4,599.8,919.4L599.8,919.4z M599.8,919.4
						C599.8,919.4,599.8,919.4,599.8,919.4C600.2,919.3,599.3,919.6,599.8,919.4z M601.6,918.6C601.7,918.5,601.7,918.5,601.6,918.6
						L601.6,918.6z M601.6,918.5C601.6,918.5,601.7,918.5,601.6,918.5C601.8,918.5,601.7,918.5,601.6,918.5z M601.6,918.6
						C601.8,918.5,601.8,918.5,601.6,918.6L601.6,918.6z"/>
					<path class="st12" d="M650.6,933.3c-13.7,2.9-10.4,7.3-8.3,6.1c7.5-4.5,10.5-2.9,9.8-5.2C652.2,934.2,651.6,933.1,650.6,933.3z
						 M646.1,937.3C646,937.4,645.9,937.4,646.1,937.3L646.1,937.3z"/>
					<path class="st12" d="M607.9,847.5c-1.4,0.8-0.1,3,1.3,2.1c8.5-5,13-6.3,18.6-7.1c1.9-0.3,1.3-2.7-0.1-2.5
						C627.8,840,620.7,839.9,607.9,847.5z M617.2,845.5C617,845.5,617,845.5,617.2,845.5L617.2,845.5z"/>
					<path class="st12" d="M524.7,763.6c1.2,0.3,1.2,1.9,0.4,2.3c-6.3,3.1-4.3,2.3-9.4,5.3c-1.4,0.9-2.7-1.3-1.3-2.1
						C525.5,762.4,524.8,763.6,524.7,763.6z"/>
					<path class="st12" d="M600.4,888.1c-0.4,0.8-1.3,0.7-6.1,2.8c-6.9,3.1-8.7,6-9.8,4.1c-0.8-1.3,0.9-1.9,2.2-2.8
						C591.1,889.3,602.8,883.6,600.4,888.1z"/>
				</g>
			</g>
		</g>
		<g>
			<path class="st4" d="M863,668.6c-4.7-1.8-10,6.7-12.2,11.2c-1.5,3.2-2.2,6.5-5.2,19c-5.9,23.8,1.3,24.5-14.8-10.5
				c-4.2-9.2-4.2-10.6-7.4-20.2c-3.9-11.4-9.6-9.1-10.4-3.5c-1.2,8.4,5.7,35.6,17.2,51.5c19.6,27.4-8-10.2-30.9-18.5
				c-4.3-1.6-11-3.5-12.2,1c-2.4,9.1,52.5,43.9,57.1,37.9c4.1-0.5,5.3-6.4,6.4-10.6C859.7,690,870.4,671.4,863,668.6z"/>
			<path class="st5" d="M890.6,887.2c6.1-2.1,12.1-4.5,18.1-7.1c21.2-9.2,41.8-21.4,57.5-38.5c19.1-20.9,30.6-55,22.3-83.2
				c-6-20.4-22.1-38.6-38.8-51.4c-11.2-8.6-33.6-16.3-50.9-12.6c-15.2,3.3-23.8,11-26.5,12.4c-15.3,7.8-27.4,28.4-27.8,29.7
				c-1,1.4-9.5-8.8-28.4-7.4c-44,3-76.5,30.8-71.3,88.5c3.7,40.7,44.2,68.5,81.5,75.7C848.8,897.6,869.9,894.3,890.6,887.2z"/>
			<g>
				<path class="st2" d="M943.3,762.9c-5.8-37.1-42-44.3-59.9-25.9c-6.8,7-6,15.1-3.6,23.9c6.4,23.4,13.7,47.4,23.4,69.6
					c4.9,11.2,5.9,16.7,12.5,14.3C927.5,840.6,949.2,800.1,943.3,762.9z"/>
				<path class="st6" d="M898,755.9c0,0.2-0.1,0.4-0.1,0.6c-0.3,1.8,1.8,2.4,3.1,1.7c3.7-1.8,7.6-4.1,10-7.6c1.2-1.8,2-4.3,0.9-6.3
					c-0.8-1.7-2.6-2.5-4.5-2.3c-2.7,0.3-4.8,2.4-6.2,4.5c-0.8,1.3-1.5,2.6-2,4.1C898.6,752.3,898.3,754.1,898,755.9z"/>
				<path class="st6" d="M914.2,774.3c-9.4,6.3-8.4,10.4,1.1,9.2C934.8,781.2,924.7,767.2,914.2,774.3z"/>
				<path class="st6" d="M925.5,811.3c-1.8-5.9-11.4-5.5-13.9-5.7c-4.1-0.3-4.3,2.8-2.1,5.2C919.6,821.9,927.5,817.7,925.5,811.3z"
					/>
			</g>
			<g>
				<path class="st2" d="M866.9,835.3c-1.7-3.1-3.4-6.2-5.1-9.2c-3.6-6.4-6.3-12.9-9.4-19.6c-4.6-10.1-10.1-19.8-14.9-29.9
					c-3.3-7-9.5-11.8-12.8-13.6c-7.6-4.1-39.6-1.4-38.1,31c0.9,19,9.2,27.9,22.3,40.9c15.4,15.2,34.5,21.4,52.8,22
					c5.7,0.2,13.9,0.9,11.6-7C871.7,844.8,869.4,840,866.9,835.3z"/>
				<path class="st6" d="M849.5,829.2c-1.1,0.1-1.5,0.9-2.7,2.7c-11.2,16.3,1.7,20.7,4.8,13.2C853.2,841.3,854.1,828.7,849.5,829.2z
					"/>
				<path class="st6" d="M831.8,819.2c-2.2,0.3-11.2,5.6-12.3,9.4c-0.9,3.3,0.9,6,4.8,5.1C829,832.4,837.8,818.4,831.8,819.2z"/>
				<path class="st6" d="M806.7,803.5c-5.7,3.6-3.4,12.4,6,6.6C829.4,799.9,814.3,798.7,806.7,803.5z"/>
				<path class="st6" d="M807,788.6c30.3-2.2-19.2-19.2-9.2-3.7C799.2,787.1,802.5,789,807,788.6z M814.5,782.8
					C814.5,782.9,814.5,782.9,814.5,782.8C814.5,782.9,814.5,782.9,814.5,782.8C814.5,782.9,814.5,782.9,814.5,782.8z"/>
			</g>
		</g>
		<g>
			<path class="st8" d="M460.6,903.1c-2.4-3-59.3-53-62.2-55.5c-17.4-14.7-73.5-72.3-80.8-78.4c-10-8.3-20.3-22.5-28.9-6.8
				c-13.5,24.1-11.3,44.6-6.1,71.9c0.1,0.8,4.1,18,5.7,22.9c12.2,37,47.1,71,87.6,73.5c10.2,0.6,20.7,0.9,30.8-0.4
				c14-1.8,23.4-5.1,34.3-10.2c4.7-2.2,18.3-10.8,20.2-13.9C461.8,905.3,461.3,904.1,460.6,903.1z"/>
			<path class="st9" d="M406.8,930.4C406.8,930.4,406.7,930.4,406.8,930.4C406.6,930.4,406.7,930.4,406.8,930.4z"/>
			<g>
				<path class="st10" d="M413.5,892.7c-13.9-11.1-51.4-11.7-81.1-58.8c-7.7-12.2-7.2-15.3-14.9-29.6c-3.6-6.6-11.2-9.1-14.4-2.5
					c-6.6,13.6,3.1,45.4,7.2,51.9c-0.1,0,13.3,27.2,35.2,40.1c12.4,7.6,43.6,15.5,60.5,11.8C418.7,902.8,418.9,897,413.5,892.7z"/>
				<path class="st6" d="M395.2,893.5c-0.9-1.9-1.7-4.1-3.7-3.4c-1.2,0.4-1.2,1.3-1.3,2.2c-0.3,3.2-1,7.4,2.6,9.2
					C395.3,902.6,398.8,900.8,395.2,893.5z"/>
				<path class="st6" d="M363.6,885.6c-4.9,8,1.7,11.7,5.4,6C372.1,887,369.9,875.4,363.6,885.6z"/>
				<path class="st6" d="M345.6,869.8c-1-2.1-3-0.6-4.8,0.4c-3.2,1.8-6.7,3-5.9,6.6C336.5,883.7,347.6,873.9,345.6,869.8z"/>
				<path class="st6" d="M326.9,847.4c-2.9-2.7-14.5-0.8-10.3,4.1C319.7,855,330,850.3,326.9,847.4z"/>
				<path class="st6" d="M306.6,820c0.2,0,0.1,0,0.3-0.1C306.8,820,306.7,820,306.6,820z"/>
				<path class="st6" d="M310.4,826.7c2.7,1,7.3,1.1,6.4-1.8c-0.6-2.2-5.9-4.8-7.8-4.6C306,820.8,304.6,824.7,310.4,826.7z"/>
			</g>
		</g>
		<g>
			<path class="st2" d="M893.4,556.8c-7.2,2.7-14.5,10.6-12.4,12.4c3.1,8.3,13.8,14.9,22.2,12.9c3.7-0.9,6-4.2,5.9-4.8
				c-0.4-2.6-3.3,2.6-15.5-3.7c-6-3.5-3.7-2.4-1.1-1.8c11,2.3,25.7,0.4,11.2-3.6c-3-0.8-7.1-1.7-14.6-1.5c4.1-1.9,7.6-2.4,12.3-3
				c2.5-0.3,2-3.3-5.4-3.3c-2.1,0,5.7-1.8,11.3,1.2c0.7,0.5,2.4,1.6,2.4,1.6C914.8,565.8,907.6,551.5,893.4,556.8z M909.6,562.7
				C909.6,562.7,909.6,562.7,909.6,562.7C909.6,562.8,909.6,562.8,909.6,562.7z"/>
			<path class="st3" d="M492.3,469.6c-0.3,1.6-0.2,2.2,1.3,3.1c5.1,3.3,7.8,4.7,13.7,7.3c19.8,8.6,13.8,1.1,17.2,12.9
				c10.5,36.2,74.9,68.8,109.9,77.2c34.2,8.2,72.3,18,119.4,22c26.5,2.3,113.2,3.9,129.2-14.9c44.3-52.1-256.6-113.5-313.5-114.3
				c-1.4,0-2.8-0.1-4.3-0.1c-7.5-0.2-15.2-0.7-22.6,0.8c-6.8,1.4-14.2,4.6-17.8,10.7c-0.4,0.7-0.8,2.6-1.5,3.2
				c-1.6,1.4-7.4-2.6-8.8-3.3C504,469.3,493.7,462.8,492.3,469.6z"/>
			<path class="st4" d="M848.1,576C848,576,848,576,848.1,576C848,576,848.1,576,848.1,576z"/>
			<path class="st4" d="M822.9,577.9C822.8,577.9,822.8,577.9,822.9,577.9C822.9,577.9,822.9,577.9,822.9,577.9z"/>
			<path class="st4" d="M649.9,557.5c-51.7-15.4-67.1-27.3-94.8-46.3c-20.9-14.3-20.6-19.3-22.9-19.2c-1.3-2.9-9.4-3.1,9.8,15.2
				c34.3,32.7,121.6,62,172.3,69.1c89.8,12.8,174.8-0.3,162.9-4.2c-0.6-1-1.7-0.5-2.4-0.4C818.7,583.2,728.4,580.8,649.9,557.5z
				 M549.4,510.2c0.1,0,0.6,0.4,0.6,0.5C549.4,510.1,548.8,509.7,549.4,510.2z"/>
			<path class="st4" d="M546.2,482.7c0.4,1.8-2.6-0.4,41.2,2.3c-2.6-0.3,35.4,4.2,132.5,31c39.3,10.6,26.6,7,45,11
				c56.1,12,105.2,36,105.3,36.1c2.2,0.8,9-0.1-10.9-10.7c-10.2-5.4-13.3-4-38.3-13.5c-27.4-10.5-113.7-32.6-185.6-48.4
				c-26-5.8-57.5-13.1-84-9.8C548.2,481.1,545.8,480.8,546.2,482.7z M670,500.2c-0.2-0.1,0.6,0.1,1.3,0.2
				C671.4,500.6,671.9,500.7,670,500.2z"/>
			<path class="st4" d="M860.7,574.4C860.7,574.4,860.7,574.4,860.7,574.4C860.7,574.4,860.7,574.4,860.7,574.4
				C860.7,574.4,860.7,574.4,860.7,574.4z"/>
			<path class="st4" d="M803.8,564C803.9,564,804,564,803.8,564C803.9,564,803.8,564,803.8,564z"/>
			<path class="st4" d="M801.9,560.7c-179.1-27.2-241-63.4-243.5-63.7c-1.3-0.6-2.2,0.4-1.9,1.4c0.4,1.4,10.8,6.1,10.9,6.1
				c9,4.5,8.7,3.7,17.9,6.9c80.5,31.4,89.3,28.5,162.1,44.2c55.3,11.9,110.7,14.7,112.5,12.1C862.7,563.5,841.4,566.7,801.9,560.7z"
				/>
			<path class="st4" d="M587.4,485C587.5,485,587.6,485,587.4,485C587.4,485,587.4,485,587.4,485z"/>
		</g>
		<g>
			<path class="st4" d="M1099.9,160c-3.1-4-22.4,5.4-33.3,8.7c-35,10.6-10.1,11.9-47.3-0.3c-9.8-3.2-17.6-5.8-30.8-6.5
				c3.5-2.5,6.9-2.9,11.2-2.7c10.8,0.6,0.8-11.5-13.2-1.6c-3.8,2.7-3.7,3.7-4.1,4c-0.1,0.1-8.1,0.5-8.2,0.5c-2.4-0.1-3,4.4,0.9,4
				c11.5,0,2.8-0.1,10.6,8c1.7,1.8,7.5,3.4,7.7,3.5c2.3,0.1,3.6-3,0.4-4.1c-1.4-0.5-4.3-2.9-6.3-6.3c10,1.7,23.8,1.9,48.5,13.1
				c-38.6,16.3-73.7,40.7-109.9,66.8c-5.4-2-19.1-3.7-25.6-3.7c-15.3,0-17.8,1.4-24,2.4c0.2-1.3,1.2-4.1,2.3-5.8
				c6.9-10.5,16.4-10.3,13.2-12.8c-2.9-2.4-12.3,1.7-18.6,9.1c-5.3,6.3-3.5,11.2-6.3,11.8c0.6-0.2-2,0.4-1.2,2.6
				c0.3,0.9,1.2,1.5,2.7,1.1c0.2,0-0.1-0.3,0.5,2.4c1.3,6.4,9.6,12.4,11,8.2c0.6-1.7-1.2-2.8-2.6-4.4c-0.6-0.7-0.3,0,3,0.3
				c4.9,0.4,8.8-2.8,5.8-4.8c-0.7-0.4-3.6-0.9-7-2.9c0-0.1,21.6-2.7,39.1,1.1c7.1,1.6-62.9,35-92,89c0.6-3.6-0.5-10.9-1.7-14.3
				c-0.4-1.1-0.5-2.5-1.6-3.2c-1.6-0.9-3.5,0.7-2.8,2.5c0.8,2.3,1.5,9.6-0.4,18.5c-2.1,9.5-1.1,12.1-2.3,6.6
				c0-0.2-4.6-21.9-4.7-22.1c-0.8-1.7-4.3-2.3-4.6,3.6c-0.8,14.7,8.7,29.7,7.8,32c-0.4,1-0.8,1.8-0.5,2.7c0.6,1.6,2.9,1.7,3.7,0
				c1-2.1,0.4-1.3,3-1.7c9.5-1.5,25.3-19.3,19.5-22.5c-4.5-2.4,0,4.7-14.8,13c-1.9,1-1.8,1.4,0.3-2.3c13.6-24.8,25.8-43.7,60.5-70.7
				c4.5,11.6,6.5,22.4,7.8,35c-9.7-16.2-12.8-9.5-10.7-6.9c4.7,5.9,5.3,6,7.9,11.2c2.2,4.3,3.3,4.7-4,0.3c-9.7-5.8-12-14-15.2-12.2
				c-3.7,2,2.2,13.4,25.3,23.2c0.5,0.2,4.4,0.1,7.9-1.6c12.5-6.1,13.8-16.7,10.7-18.4c-1.1-0.6-2.6-0.3-3.2,2
				c-1.1,3.9-1.7,5.4-9.3,9.6c3-7.3,3.6-20.5-1.3-20.9c-4.7,0.2,0.6,4.9-3,14.8c-0.5-12.8-2.8-27.3-8.9-39
				c37.1-26.2,31.1-22.8,33.1-24.3c7.8-5.6,13.6-8.7,24.4-16.4c31.4-22.7,39.8-28.6,49.5-33.3c2.8,11.4,3.7,30.8,2.6,43.6
				c-4.7-0.8-5.3-3.1-6.4-3.6c-1.8-3-4.7-8.6-7.4-6.3c-1.4,1.2-0.8,3-0.3,4.9c1.7,5.8,6.2,7.9-0.6,4.3c-4.8-3.1-7.9-7.5-9.4-8.6
				c-2.9-2-5.1-0.2-5.2,1.4c-0.2,11.5,22.7,22.1,46,9.7c4.1-2.2,15.8-13.5,11.9-16.2c-3.4-2.5-1.6,3.7-12.7,10.9
				c-5.8,3.5-3.8,2.1-2.1-1.1c0.3-0.6,3-5.6,2.8-6.7c-0.2-1.5-2.5-2.9-4.1,0.1c-1,2-0.8,2.5-4.6,6.6c-6.9,6.9,0.5,5.1-4.2-36.4
				c-0.8-7.3-2.8-3.9,4.6-8.5C1046.8,176.7,1106.2,168.4,1099.9,160z M824,325.1C824,325.1,824,325.1,824,325.1
				C824,325.1,824,325.1,824,325.1C824,325.1,824,325.1,824,325.1z M812.3,331C812.3,331,812.3,331,812.3,331
				C812.4,330.9,812.4,330.8,812.3,331z M826.3,340.3c0,0,0,0,0,0.2C826.3,340.1,826.4,339.9,826.3,340.3z"/>
			<path class="st7" d="M1026.8,191C1026.8,191,1026.9,190.9,1026.8,191C1026.9,190.9,1026.9,191,1026.8,191
				C1026.8,191,1026.8,191,1026.8,191z"/>
			<path class="st7" d="M1027,190.9c-0.1,0-0.1,0-0.2,0.1C1026.9,190.9,1027,190.9,1027,190.9z"/>
			<path class="st7" d="M892.2,281.4C892.2,281.3,892.1,281.3,892.2,281.4C892.2,281.4,892.2,281.4,892.2,281.4z"/>
			<polygon class="st7" points="897.3,295.4 897.3,295.4 897.3,295.4 			"/>
			<path class="st7" d="M892.2,281.4C892.1,281.3,892.1,281.2,892.2,281.4C892.1,281.3,892.2,281.3,892.2,281.4z"/>
			<path class="st7" d="M1005.8,217.7c0,0.1,0,0.2,0,0.3C1005.9,218,1005.8,217.8,1005.8,217.7z"/>
			<path class="st7" d="M989.2,249.2c-0.1-0.2-0.2-0.3-0.3-0.4C989,248.9,989.1,249.1,989.2,249.2z"/>
			<path class="st8" d="M968.6,310.1c15.1,10.4,38.2,14.9,54.7,5.1c11.5-6.8,19.7-21.6,17.8-35.1c0-0.1,0-0.2,0-0.3
				c-2.7-16.1-19.5-26.7-34.4-28c-8.4-0.7-18.5-1.6-25.9,2.7c-10.6,6.2-20.5,16.9-23.5,29.5C954.9,294.4,960.1,304.2,968.6,310.1z"
				/>
			<path class="st8" d="M923.4,177.7c5.7,7.5,15.9,11.9,25.4,12.2c15.3,0.5,30.2-8.9,35.5-23.4c2.5-6.6,2.6-13.9,0.4-20.7
				c-5.2-16.5-23.9-22.1-39.3-17.4c-14.3,4.3-26,19.3-26.8,34.2C918.4,168.5,920.2,173.6,923.4,177.7z"/>
			<path class="st8" d="M893.6,329.9c-3.2,1.2-19.1,12.4-22.7,30.9c-2.3,12-2,26.8,6.5,36.5c9.9,11.3,28.7,10.6,41.8,6.7
				c18.4-5.4,36.9-30.8,26.4-54.5C938.9,333.8,914.4,322.4,893.6,329.9z"/>
			<path class="st8" d="M777.5,431.6c7.1,2.5,14.9,3.4,22.2,2.8c7.7-0.6,15.5-2.2,21.4-7.3c6.7-5.8,11-14.1,13.1-22.6
				c1.3-5.1,1.8-10.5,1.4-15.7c-0.4-5.9-2-11.8-4.6-17.1c-0.9-1.8-2-3.9-3.4-5.4c-7.5-7.8-21.3-12.5-31.9-11.7
				c-27.3,2-49.7,30.6-39.3,57.5C760.2,422,768.2,428.3,777.5,431.6z"/>
			<path class="st8" d="M813.2,284.4c8.7,8.1,17,10.2,28.2,6.3c5.7-2,11.6-4,16.1-8.1c4.1-3.8,7.3-8.3,9.9-13.2
				c3.2-5.9,6.6-13.2,7.1-20c0.9-12.2-6.3-25.4-14.7-30.7c-10.5-6.7-22.2-8-28.8-5.4c-13.9,5.4-29.1,21.7-31.2,37.2
				C798.2,264,799.7,272.5,813.2,284.4z"/>
		</g>
		<g>
			<g>
				<path class="st4" d="M573.4,294.8c-2.5-2.6-9-6.2-12.4-7.3c-1.1-0.4-2.3-1.2-3.5-0.6c-1.7,0.8-1.6,3.2,0.3,3.8
					c2.3,0.8,8.5,4.6,14.4,11.6c6.2,7.4,8.9,8.2,3.9,5.8c-0.1-0.1-20.2-9.7-20.4-9.7c-1.8-0.4-4.5,2.1,0,5.9
					c11.2,9.5,28.9,11.2,30.2,13.2c0.6,0.9,0.9,1.7,1.9,2c1.7,0.5,3.1-1.3,2.3-2.9c-1.1-2-0.8-1.1,0.5-3.4c4.5-8.5,0-31.9-6-29.1
					c-4.7,2.1,3.8,2.8,1.3,19.6c-0.3,2.1,0.1,2.3-1.7-1.6C575.9,282.9,566.1,278.4,573.4,294.8z M557.2,299.9
					C557.2,299.9,557.2,299.9,557.2,299.9C557.2,299.8,557.2,299.8,557.2,299.9z M559.6,287.1C559.6,287.1,559.6,287.1,559.6,287.1
					C559.6,287.1,559.6,287.1,559.6,287.1C559.6,287.1,559.6,287.1,559.6,287.1z"/>
				<path class="st4" d="M573.3,294.7c-0.1-0.1-0.1-0.1-0.2-0.2C572.8,294.2,573,294.4,573.3,294.7z"/>
			</g>
			<path class="st5" d="M616,388.8c6.3-4.1,11.7-9.8,15.8-15.9c4.2-6.4,7.7-13.6,7.2-21.5c-0.5-8.8-4.5-17.3-10-24.1
				c-3.3-4.1-7.3-7.8-11.7-10.7c-4.9-3.2-10.6-5.6-16.4-6.7c-2-0.4-4.3-0.8-6.3-0.6c-10.7,1.2-22.9,9.3-28.7,18.2
				c-14.9,22.9-5.9,58,21.8,66.2C597.9,396.6,607.7,394.1,616,388.8z"/>
		</g>
		<g>
			<g>
				<path class="st4" d="M174.2,641.6c-0.1,1.2-0.7,2.5,0.1,3.5c1.1,1.5,3.4,0.9,3.6-1.1c0.2-2.4,2.6-9.3,8.2-16.6
					c5.9-7.7,6.1-10.5,4.8-5c0,0.1-5.1,21.8-5,22c0,1.9,3,3.9,5.7-1.3c6.9-13,4.6-30.6,6.4-32.4c0.7-0.8,1.5-1.3,1.5-2.3
					c0.1-1.7-1.9-2.8-3.3-1.6c-1.8,1.5-0.9,1-3.4,0.3c-9.3-2.6-31.1,6.9-27.1,12.2c3.1,4.1,3.9-4.3,20.9-5.5
					c0.9-0.1-4.1,4.3-6.7,9.6C176.2,630.5,174.4,639.5,174.2,641.6z M187.2,642.6C187.2,642.6,187.2,642.6,187.2,642.6
					C187.1,642.7,187.1,642.7,187.2,642.6z M174.2,643C174.2,643,174.2,643,174.2,643C174.2,643,174.2,643,174.2,643
					C174.2,643,174.2,643,174.2,643z"/>
			</g>
			<path class="st8" d="M261.1,565.9c-5.3-5.3-12.1-9.3-19-11.9c-7.2-2.7-15-4.6-22.5-2.4c-8.5,2.4-15.9,8.2-21.4,15
				c-3.3,4.1-6,8.8-7.9,13.7c-2.1,5.5-3.2,11.5-3,17.4c0.1,2.1,0.1,4.3,0.8,6.3c3.5,10.2,14.1,20.3,24,24
				c25.6,9.6,57.9-6.9,59.8-35.7C272.7,581.9,268.2,572.8,261.1,565.9z"/>
		</g>
		<g>
			<g>
				<path class="st4" d="M684.4,708.3c3.4,1.2,10.8,1.3,14.4,0.7c1.1-0.2,2.6,0,3.4-1c1.1-1.4-0.1-3.5-2-3.2
					c-2.4,0.4-9.7-0.1-18.2-3.5c-9-3.7-11.7-3.1-6.1-3.3c0.2,0,22.4-0.9,22.5-0.9c1.8-0.5,3-3.9-2.8-5.2
					c-14.4-3.2-30.8,3.6-32.9,2.4c-0.9-0.5-1.6-1.1-2.6-0.9c-1.7,0.4-2.2,2.6-0.7,3.6c1.9,1.3,1.2,0.6,1.2,3.2
					c-0.1,9.6,14.8,28.2,18.9,23c3.2-4-4.6-0.7-10.3-16.8c-0.7-2-1.1-2,2.2,0.7C687.7,719.9,698.5,719.3,684.4,708.3z M696.3,696.2
					C696.3,696.2,696.3,696.2,696.3,696.2C696.4,696.3,696.4,696.3,696.3,696.2z M700.2,708.7C700.2,708.7,700.2,708.7,700.2,708.7
					C700.2,708.7,700.2,708.7,700.2,708.7C700.2,708.7,700.2,708.7,700.2,708.7z"/>
				<path class="st4" d="M684.6,708.3c0.2,0.1,0.2,0.1,0.2,0.1C685.2,708.5,685,708.5,684.6,708.3z"/>
			</g>
			<path class="st8" d="M602.9,645c-3.7,6.5-5.9,14.1-6.5,21.5c-0.7,7.7-0.5,15.6,3.6,22.4c4.6,7.5,12,13.2,20,16.7
				c4.8,2.1,10,3.5,15.3,4c5.9,0.6,12,0,17.6-1.7c2-0.6,4.2-1.3,5.9-2.5c8.9-6.1,15.9-18.9,16.9-29.4c2.6-27.2-21.8-54.1-50.1-48.4
				C615.3,629.6,607.8,636.4,602.9,645z"/>
		</g>
	</g>
</g>
</svg>
