<svg id="Layer_1" data-name="Layer 1" xmlns="http://www.w3.org/2000/svg" xmlns:xlink="http://www.w3.org/1999/xlink" viewBox="0 0 800 800"><defs><style>.cls-1{fill:none;}.cls-2{fill:#ffb03b;}.cls-3{clip-path:url(#clip-path);}.cls-4{fill:#9db552;}.cls-5{fill:#7b9737;}.cls-6{fill:#fcce38;}.cls-7{fill:#ffda71;}.cls-8{fill:#00a388;}.cls-9{fill:#f9593a;}.cls-10{fill:#e51313;}.cls-11{fill:#ed3d26;}.cls-12{clip-path:url(#clip-path-2);}.cls-13{fill:#fff;}.cls-14{clip-path:url(#clip-path-3);}</style><clipPath id="clip-path"><rect class="cls-1" width="800" height="800"/></clipPath><clipPath id="clip-path-2"><path class="cls-2" d="M497.44-110.16c7.48-1.57,11.23,2.25,16.95,9,16.58,19.43,33.94,38,48,59.5,27.42,42,58.09,83.19,82.28,127.15,3.09,5.6,5.72,10.54,8.69,15.43,25,37.66,18.09,62.27,18.56,58.18-2.45,21.6-22.06,20.51-26.06,18.71-11.69,0-32.81-18.89-39.87-28C595.31,136,587.46,120,578.47,105.18c-18.39-30.35-31.18-62.52-45.06-95-12.42-29-25.31-58.14-34.8-88.29-2.37-7.53-5.07-15.56-5.34-23.53C493.07-110.5,497.81-110.24,497.44-110.16Z"/></clipPath><clipPath id="clip-path-3"><path class="cls-2" d="M497.44,689.84c7.48-1.57,11.23,2.25,16.95,9,16.58,19.43,33.94,38,48,59.5,27.42,42,58.09,83.19,82.28,127.15,3.09,5.6,5.72,10.54,8.69,15.43,25,37.66,18.09,62.27,18.56,58.18-2.45,21.6-22.06,20.51-26.06,18.71-11.69,0-32.81-18.89-39.87-28C595.31,936,587.46,920,578.47,905.18c-18.39-30.35-31.18-62.52-45.06-95-12.42-29-25.31-58.14-34.8-88.29-2.37-7.53-5.07-15.56-5.34-23.53C493.07,689.5,497.81,689.76,497.44,689.84Z"/></clipPath></defs><title>Artboard 47</title><g class="cls-3"><rect class="cls-1" width="800" height="800"/><path class="cls-2" d="M224.55,445.65c2.77-7.18,1.75-17.84-1.06-17.49-8.25-3.22-20.34.4-24.4,8-1.78,3.35-.83,7.25-.31,7.59,2.19,1.47.27-4.15,13.09-9.09,6.64-2.15,4.27-1.22,2.1.37-9,6.67-17.38,19-4.77,10.76A45.48,45.48,0,0,0,220,435.9c-1.28,4.31-3.26,7.25-6,11.18-1.44,2.09,1.2,3.69,6-1.83,1.39-1.56-2.44,5.5-8.42,7.58-.83.26-2.77.7-2.82.71C203.56,455.59,219,459.72,224.55,445.65Zm-15.17,8.13h0C209.29,453.76,209.29,453.76,209.38,453.78Z"/><path class="cls-4" d="M556.38,204.05c-1-1.27-1.56-1.59-3.19-1.15a77.07,77.07,0,0,0-14.53,5.42c-19.56,9-10,9.62-21.06,4.24-34.08-16.23-101.17,10.15-130.75,30.68C358,263.32,325.31,285.29,291,317.78c-19.3,18.25-78.19,81.93-74.75,106.38,9.39,67.72,255.43-116.14,293.81-158.1.95-1,1.93-2.08,2.9-3.12,5.1-5.46,10.65-10.88,14.44-17.38,3.48-6,6-13.61,3.9-20.42-.25-.82-1.4-2.37-1.39-3.24,0-2.12,6.84-3.8,8.29-4.41C548.81,213,560.59,209.63,556.38,204.05Z"/><path class="cls-5" d="M240.38,399l0-.06Z"/><path class="cls-5" d="M255.66,378.89Z"/><path class="cls-5" d="M385.94,263.3c45.9-28.34,65.05-31.94,97.63-40,24.58-6.08,28.12-2.48,29.59-4.28,3,.94,8.54-4.93-17.85-2.81-47.19,3.84-127.19,49.54-166.24,82.72-69.27,58.56-116,130.73-105.22,124.49,1.18.25,1.49-.9,1.84-1.53C254.54,372.31,316.33,306.42,385.94,263.3Zm102.17-43.54a2.67,2.67,0,0,1-.75.11C488.21,219.72,488.88,219.59,488.11,219.76Z"/><path class="cls-5" d="M510.83,235.63c-1.64-.91,2-1.71-29.13,29.19,1.93-1.72-26.64,23.62-111.29,78.37-34.06,22.25-22.9,15.18-38.15,26.33-46.27,34-96.83,54.57-96.94,54.64-2,1.08-6,6.79,15.23-1,10.87-4,11.82-7.27,35.55-19.59,26-13.47,99.94-63.28,159.59-106.45,21.61-15.61,48.08-34.22,63.19-56.24C510.67,238.21,512.5,236.59,510.83,235.63Zm-95.45,80.74c.19-.13-.49.38-1,.8C414.22,317.2,413.71,317.5,415.38,316.37Z"/><path class="cls-5" d="M233.15,409.44h0Z"/><path class="cls-5" d="M278.73,373.92l0,0Z"/><path class="cls-5" d="M282.48,374.71C421.86,259.07,490.09,236.94,492,235.18a1.28,1.28,0,0,0,.22-2.4c-1.36-.62-11.72,4-11.85,4.08-9.36,3.69-8.56,4-17,8.76-77,39.25-80.7,47.71-140.81,91.62-45.72,33.4-84.64,72.89-83.84,76C240,418.21,251.71,400.2,282.48,374.71Z"/><path class="cls-5" d="M481.7,264.82c-.13.12-.16.15,0,0Z"/><path class="cls-2" d="M93.43,556.77c-7.21,2.71-14.5,10.56-12.36,12.43,3.08,8.3,13.82,14.92,22.22,12.88,3.69-.89,6-4.19,5.87-4.81-.36-2.61-3.28,2.56-15.5-3.73-6-3.53-3.75-2.37-1.11-1.81,11,2.3,25.71.36,11.2-3.6a45.58,45.58,0,0,0-14.6-1.5c4.07-1.91,7.58-2.38,12.33-3,2.53-.31,2-3.35-5.38-3.29-2.1,0,5.73-1.83,11.26,1.24.74.46,2.36,1.61,2.41,1.64C114.81,565.84,107.6,551.53,93.43,556.77Zm16.15,5.92Z"/><path class="cls-4" d="M-307.68,469.65c-.32,1.56-.16,2.22,1.25,3.14A77.1,77.1,0,0,0-292.72,480c19.76,8.6,13.85,1.09,17.18,12.9,10.54,36.25,74.86,68.81,109.87,77.25,34.2,8.21,72.33,18,119.4,22,26.47,2.27,113.19,3.9,129.16-14.93C127.22,525.2-173.72,463.75-230.57,463c-1.42,0-2.84-.06-4.26-.09-7.48-.18-15.22-.72-22.59.78-6.79,1.38-14.16,4.56-17.84,10.67-.45.73-.85,2.62-1.5,3.19-1.59,1.41-7.39-2.58-8.81-3.26C-296,469.35-306.32,462.79-307.68,469.65Z"/><path class="cls-5" d="M48.07,576h0Z"/><path class="cls-5" d="M22.88,577.94Z"/><path class="cls-5" d="M-150.08,557.52c-51.69-15.42-67.12-27.33-94.83-46.27-20.9-14.32-20.56-19.35-22.88-19.25-1.29-2.86-9.36-3.1,9.77,15.19,34.26,32.69,121.59,62,172.34,69.14C4.11,589.11,89.1,576,77.26,572.11c-.6-1.05-1.67-.52-2.36-.36C18.72,583.16-71.59,580.83-150.08,557.52Zm-100.47-47.34c.05,0,.62.45.58.49C-250.65,510.13-251.19,509.72-250.55,510.18Z"/><path class="cls-5" d="M-253.81,482.66c.41,1.84-2.6-.35,41.18,2.34-2.58-.3,35.35,4.18,132.53,31,39.27,10.64,26.58,7,45,11,56.14,12,105.15,36,105.27,36.06,2.17.8,9-.07-10.9-10.69-10.22-5.45-13.29-4-38.28-13.52C-6.33,528.34-92.69,506.27-164.6,490.44c-26-5.75-57.53-13.15-84-9.79C-251.78,481.07-254.21,480.78-253.81,482.66ZM-130,500.25c-.21-.06.61.11,1.29.24C-128.65,500.56-128.08,500.74-130,500.25Z"/><path class="cls-5" d="M60.67,574.43h0Z"/><path class="cls-5" d="M3.82,564h0Z"/><path class="cls-5" d="M1.92,560.7c-179-27.19-241-63.43-243.54-63.67a1.28,1.28,0,0,0-1.93,1.44c.44,1.42,10.8,6.07,10.92,6.13,9,4.53,8.71,3.72,17.88,6.9,80.52,31.41,89.3,28.53,162.07,44.22C2.67,567.65,58,570.45,59.83,567.78,62.66,563.48,41.42,566.72,1.92,560.7Z"/><path class="cls-6" d="M90.65,87.21c6-2.07,12.06-4.46,18.06-7.06C129.87,71,150.48,58.8,166.17,41.64c19.14-20.91,30.58-55,22.26-83.18-6-20.42-22.08-38.61-38.76-51.38-11.24-8.61-33.62-16.34-50.87-12.62C83.63-102.2,75-94.56,72.32-93.17,57-85.34,45-64.8,44.49-63.52c-1,1.41-9.52-8.77-28.36-7.42-44,3-76.51,30.81-71.31,88.51C-51.52,58.26-11,86.11,26.31,93.31,48.77,97.64,69.94,94.28,90.65,87.21Z"/><path class="cls-2" d="M143.29-37.08c-5.79-37.07-42-44.29-59.93-25.9-6.77,7-6,15.15-3.61,23.92C86.16-15.63,93.4,8.32,103.18,30.58c4.91,11.18,5.88,16.67,12.46,14.32C127.52,40.55,149.23.07,143.29-37.08Z"/><path class="cls-7" d="M125.47,11.31c-1.8-5.85-11.38-5.47-13.93-5.66-4.07-.29-4.34,2.79-2.15,5.16C119.56,21.86,127.49,17.68,125.47,11.31Z"/><path class="cls-2" d="M66.93,35.26c-1.66-3.11-3.42-6.18-5.13-9.24-3.57-6.37-6.35-12.94-9.38-19.57C47.79-3.67,42.29-13.37,37.48-23.4A32.82,32.82,0,0,0,24.65-37c-7.59-4.14-39.59-1.41-38.07,31C-12.49,13.07-4.21,22,8.89,35,24.26,50.13,43.41,56.4,61.74,57c5.74.19,13.95.88,11.55-7A83.16,83.16,0,0,0,66.93,35.26Z"/><path class="cls-7" d="M49.54,29.23c-1.08.12-1.49.9-2.65,2.7-11.2,16.3,1.7,20.71,4.79,13.17C53.23,41.27,54.09,28.69,49.54,29.23Z"/><path class="cls-7" d="M31.76,19.16c-2.25.27-11.21,5.56-12.32,9.41-.91,3.34.95,6,4.82,5.06C29,32.38,37.83,18.44,31.76,19.16Z"/><path class="cls-7" d="M6.75,3.55c-5.74,3.64-3.41,12.39,6,6.61C29.39-.07,14.29-1.26,6.75,3.55Z"/><path class="cls-5" d="M299.9,160c-3.06-4-22.39,5.36-33.34,8.67-35,10.57-10.11,11.85-47.33-.33-9.84-3.19-17.64-5.76-30.77-6.48,3.47-2.54,6.9-2.91,11.19-2.66,10.8.58.84-11.54-13.23-1.59-3.81,2.68-3.67,3.72-4.09,4-.09.08-8.08.5-8.22.5-2.35-.06-3,4.44.87,4,11.46,0,2.79-.11,10.64,8,1.7,1.75,7.55,3.45,7.68,3.45,2.32.08,3.64-3,.41-4.11-1.43-.49-4.33-2.94-6.29-6.26,10,1.67,23.75,1.87,48.5,13.11-38.55,16.3-73.67,40.69-109.86,66.8-5.39-2-19.07-3.72-25.58-3.71-15.35,0-17.8,1.37-24,2.4a19.94,19.94,0,0,1,2.3-5.81c6.86-10.5,16.37-10.29,13.21-12.84-2.88-2.37-12.27,1.68-18.57,9.11-5.31,6.27-3.51,11.24-6.33,11.75a2,2,0,1,0,1.5,3.72c.15,0-.09-.31.47,2.43,1.34,6.44,9.65,12.38,11,8.23.56-1.66-1.15-2.77-2.63-4.37-.61-.66-.26,0,3,.27,4.93.4,8.75-2.79,5.76-4.76-.66-.44-3.58-.94-7-2.9,0-.14,21.65-2.65,39.11,1.15,7.06,1.58-62.9,35-92,88.95.6-3.55-.52-10.89-1.69-14.29-.38-1.1-.46-2.55-1.6-3.17a2,2,0,0,0-2.83,2.55c.79,2.29,1.53,9.58-.43,18.52-2.13,9.45-1.13,12.09-2.26,6.6,0-.15-4.6-22-4.67-22.08-.83-1.68-4.34-2.29-4.63,3.58-.76,14.73,8.7,29.74,7.84,32-.36,1-.83,1.78-.46,2.7a2,2,0,0,0,3.7,0c1-2.1.39-1.28,3-1.68C31.63,364,47.49,346.18,41.63,343c-4.52-2.44,0,4.7-14.8,13-1.89,1-1.76,1.42.28-2.31C40.74,328.88,52.91,310,87.56,283,92.07,294.57,94,305.38,95.35,318c-9.72-16.21-12.83-9.55-10.69-6.87,4.75,5.93,5.28,6,8,11.18,2.2,4.26,3.26,4.68-4,.29-9.69-5.84-12-13.95-15.23-12.19-3.73,2,2.23,13.41,25.28,23.19.54.23,4.36.12,7.88-1.59,12.53-6.07,13.85-16.69,10.73-18.37-1.08-.59-2.56-.29-3.17,2-1.07,3.93-1.68,5.42-9.32,9.61,3-7.3,3.65-20.52-1.26-20.94-4.75.22.57,4.87-3,14.75-.47-12.79-2.84-27.32-9-39,37.13-26.22,31.08-22.84,33.14-24.32,7.79-5.58,13.63-8.69,24.37-16.41,31.44-22.66,39.83-28.63,49.52-33.3,2.81,11.43,3.7,30.77,2.57,43.56-4.66-.81-5.31-3.08-6.42-3.61-1.76-3-4.72-8.58-7.37-6.28-1.4,1.19-.84,3-.29,4.94,1.66,5.85,6.16,8-.55,4.35-4.79-3.08-7.92-7.51-9.43-8.6-2.86-2-5.13-.25-5.15,1.39-.21,11.55,22.71,22.12,46,9.68,4.11-2.17,15.76-13.47,11.94-16.17-3.36-2.5-1.63,3.71-12.71,10.89-5.82,3.5-3.8,2.09-2.06-1.07.35-.63,3-5.56,2.85-6.7-.23-1.52-2.53-2.87-4.11,0-1,2-.79,2.47-4.58,6.58-6.89,6.95.51,5.14-4.19-36.44-.83-7.25-2.79-3.88,4.55-8.51C246.8,176.7,306.18,168.35,299.9,160ZM24,325.08h0ZM12.29,331Zm14,9.33a1.73,1.73,0,0,0,0,.23C26.32,340.09,26.36,339.87,26.29,340.29Z"/><path class="cls-8" d="M226.83,191l0,0h0Z"/><path class="cls-8" d="M227,190.85l-.16.09Z"/><path class="cls-8" d="M92.2,281.42c0-.07,0-.1,0,0Z"/><polygon class="cls-8" points="97.28 295.35 97.28 295.36 97.28 295.36 97.28 295.35"/><path class="cls-8" d="M92.16,281.35c0-.09-.07-.12,0,0Z"/><path class="cls-8" d="M205.83,217.65l0,.25C205.88,218,205.85,217.79,205.83,217.65Z"/><path class="cls-8" d="M189.16,249.21c-.12-.22-.15-.27-.26-.45Z"/><path class="cls-9" d="M168.58,310.05c15.13,10.4,38.16,14.87,54.72,5.13,11.49-6.77,19.72-21.6,17.78-35.11l-.05-.28c-2.7-16.12-19.53-26.69-34.35-28-8.37-.74-18.46-1.63-25.85,2.73-10.61,6.24-20.51,16.93-23.49,29.53C154.88,294.45,160.06,304.2,168.58,310.05Z"/><path class="cls-9" d="M123.37,177.7c5.75,7.53,15.89,11.92,25.45,12.25,15.29.52,30.19-8.89,35.55-23.4a31.93,31.93,0,0,0,.44-20.68c-5.23-16.47-23.9-22.12-39.32-17.42-14.26,4.34-26,19.26-26.77,34.23A22.3,22.3,0,0,0,123.37,177.7Z"/><path class="cls-9" d="M93.56,329.93c-3.22,1.16-19.07,12.37-22.67,30.94-2.32,12-2,26.81,6.5,36.51,9.87,11.27,28.7,10.64,41.85,6.75,18.37-5.44,36.88-30.76,26.39-54.51C138.86,333.81,114.41,322.42,93.56,329.93Z"/><path class="cls-9" d="M-22.53,431.62A54.56,54.56,0,0,0-.29,434.47c7.67-.58,15.49-2.16,21.44-7.29,6.67-5.76,11-14.09,13.08-22.56a51.55,51.55,0,0,0,1.39-15.75A45.92,45.92,0,0,0,31,371.8a21.47,21.47,0,0,0-3.41-5.39c-7.46-7.76-21.34-12.51-31.85-11.72-27.26,2.05-49.66,30.56-39.3,57.52C-39.77,422-31.83,428.27-22.53,431.62Z"/><path class="cls-9" d="M13.15,284.39c8.66,8.11,17,10.2,28.23,6.3,5.73-2,11.61-4,16.1-8.13a50.48,50.48,0,0,0,9.93-13.19c3.16-5.85,6.61-13.24,7.14-20,1-12.21-6.27-25.41-14.68-30.7-10.45-6.66-22.19-8-28.78-5.45C17.2,218.61,2,234.92-.08,250.46-1.83,264-.27,272.53,13.15,284.39Z"/><path class="cls-6" d="M383.53,457.48c-1.33,3.61-13.44,78.38-14,82.2-3.15,22.55-22.21,100.64-23.47,110.13-1.75,12.92-8.33,29.14,9.56,28.1,27.6-1.41,43.78-14.13,64.15-33.06.67-.49,13.09-13,16.38-17,24.9-30,35.16-77.61,15.77-113.29-4.88-9-10.2-18-16.68-25.91-8.93-10.89-16.77-17.06-26.84-23.61-4.37-2.83-18.89-9.75-22.49-9.72A2.88,2.88,0,0,0,383.53,457.48Z"/><path class="cls-10" d="M435.23,488.62l0,.05Z"/><path class="cls-2" d="M399.74,503c-2,17.68,17.37,49.83-6.7,99.94-6.28,13-9.15,14.27-17.2,28.39-3.72,6.55-1.82,14.31,5.51,13.55,15.06-1.61,36.78-26.77,40.14-33.64.09,0,15.93-25.73,15.31-51.14-.12-14.52-10.06-45.18-22.11-57.53C405.55,493.18,400.5,496.11,399.74,503Z"/><path class="cls-7" d="M410.16,518c-1.09,1.76-2.57,3.64-1,4.93,1,.8,1.79.31,2.56-.09,2.82-1.47,6.85-3.09,6.37-7.07C417.82,513,414.43,511.06,410.16,518Z"/><path class="cls-7" d="M420.18,549c9.33-.08,9-7.63,2.19-7.76C416.93,541,408.2,549,420.18,549Z"/><path class="cls-7" d="M416.42,572.58c-1.24,1.95,1,2.86,2.89,3.86,3.21,1.74,6.09,4.08,8.72,1.54C433,573,418.85,568.78,416.42,572.58Z"/><path class="cls-7" d="M407.33,600.4c-.77,3.88,7.05,12.67,8.92,6.59C417.62,602.4,408.16,596.17,407.33,600.4Z"/><path class="cls-7" d="M395,632.14l-.22-.25Z"/><path class="cls-7" d="M398.59,625.39c-.63-2.8-3-6.77-5-4.49-1.5,1.71-.95,7.58.28,9C395.91,632.21,400,631.32,398.59,625.39Z"/><path class="cls-9" d="M460.62,103.1c-2.35-3-59.27-53-62.22-55.49C381,33,324.93-24.67,317.55-30.78c-10-8.35-20.26-22.53-28.89-6.82C275.2-13.47,277.38,7,282.6,34.31c.06.83,4.07,18,5.69,22.9,12.19,37,47.08,71,87.62,73.53,10.18.63,20.65.92,30.8-.37,14-1.78,23.37-5.14,34.27-10.2,4.71-2.19,18.29-10.82,20.17-13.9A2.84,2.84,0,0,0,460.62,103.1Z"/><path class="cls-10" d="M406.78,130.37h-.07C406.61,130.39,406.68,130.38,406.78,130.37Z"/><path class="cls-11" d="M413.46,92.67C399.53,81.61,362,80.93,332.35,33.91c-7.68-12.22-7.23-15.33-14.92-29.65-3.57-6.62-11.16-9.14-14.4-2.53-6.64,13.62,3.14,45.39,7.17,51.88-.09,0,13.35,27.16,35.2,40.14,12.37,7.6,43.63,15.47,60.49,11.82C418.67,102.8,418.87,97,413.46,92.67Z"/><path class="cls-7" d="M395.22,93.53c-.91-1.86-1.72-4.11-3.67-3.43-1.21.42-1.21,1.35-1.28,2.21-.26,3.17-1,7.45,2.6,9.16C395.34,102.65,398.81,100.82,395.22,93.53Z"/><path class="cls-7" d="M363.65,85.56c-4.89,8,1.68,11.67,5.41,6C372.09,87,369.94,75.37,363.65,85.56Z"/><path class="cls-7" d="M345.63,69.83c-1-2.08-3-.63-4.81.4-3.17,1.79-6.69,3-5.93,6.57C336.45,83.69,347.55,73.91,345.63,69.83Z"/><path class="cls-7" d="M326.89,47.35c-2.88-2.71-14.48-.75-10.32,4.07C319.73,55,330,50.31,326.89,47.35Z"/><path class="cls-7" d="M306.56,20l.33-.05Z"/><path class="cls-7" d="M310.36,26.68c2.7.95,7.31,1.08,6.44-1.84-.64-2.18-5.91-4.83-7.8-4.57C306,20.79,304.6,24.68,310.36,26.68Z"/><path class="cls-5" d="M667.07,153.48c-.08-.09.46-.28.56-.3,2.28-.48,34.93,38.26,44.38,51.25,5.71,7.84,14.74,21.35,14.57,21.15,0,0,25.11,30.86,34.13,44.51,1.35,1.9,2,3-.06,4-5.67,2.75-4.42,2.64-8.87-1.06-6.18-5.14-11.23-13.4-16.28-19.64-15.6-19.27-29.85-39.48-45.79-58.45-5.19-6.17-29.59-29.05-25.83-38.5C665.61,152.09,666.57,153.5,667.07,153.48Z"/><path class="cls-5" d="M660.71,165.21a1.23,1.23,0,0,1,1.28-.31c2.17,1.28,4.3,7.5,5.5,9.6q6.21,10.92,12.39,21.85c14.75,26,28.35,52.09,41.07,79.13,3.93,8.34,8,13.25-.55,12.49-8.9-.79-4.44,4-13.3-14.45-30.34-62.8-53.14-101.66-52.62-105.09C654.82,166.2,659.08,164.44,660.71,165.21Z"/><path class="cls-5" d="M649,165.57c4.78,2.61,7.56,15.83,9.27,20.46,6.26,16.88,12.12,33.74,18.78,50.46,1.57,3.95,14.57,30.16,10.65,33.71-1.15,1.24-4.11.35-5.73-.19-13.9-4.61-9.68.63-13.14-12.05-6-22.1-11.66-44.3-17.7-66.39-1.88-6.86-8.27-16.75-8.27-23.74C642.9,162.6,643.42,162.51,649,165.57Z"/><path class="cls-2" d="M497.44-110.16c7.48-1.57,11.23,2.25,16.95,9,16.58,19.43,33.94,38,48,59.5,27.42,42,58.09,83.19,82.28,127.15,3.09,5.6,5.72,10.54,8.69,15.43,25,37.66,18.09,62.27,18.56,58.18-2.45,21.6-22.06,20.51-26.06,18.71-11.69,0-32.81-18.89-39.87-28C595.31,136,587.46,120,578.47,105.18c-18.39-30.35-31.18-62.52-45.06-95-12.42-29-25.31-58.14-34.8-88.29-2.37-7.53-5.07-15.56-5.34-23.53C493.07-110.5,497.81-110.24,497.44-110.16Z"/><g class="cls-12"><path class="cls-13" d="M569.42,9.82a1.24,1.24,0,0,1,.52,1.69c-.67,1.29-4.42,1.12-12.54,6.7a1.25,1.25,0,0,1-1.31-2.13C565.67,9.5,569.85,9.73,569.42,9.82Z"/><path class="cls-13" d="M568.39,57.41c.56,1.89-1.8,1.21-7.68,4.63-13,7.52-16.07,12.72-17.51,10.36-.74-1.21.42-1.74,4.12-4.4C569.52,52.14,568.4,57.4,568.39,57.41Z"/><path class="cls-13" d="M646.38,70.51c.81,2.69-4.7.67-18.87,10.49a1.25,1.25,0,0,1-1.3-2.13,65.09,65.09,0,0,1,18.62-9.2A1.28,1.28,0,0,1,646.38,70.51Z"/><path class="cls-13" d="M602.81,118.05c-.91.19-19.71,9.37-18.19,11.87s3.84-2.88,18-9.11c.81-.35,1.25-.47,1.5-.94A1.26,1.26,0,0,0,602.81,118.05Zm0,2.68Zm-2,.87Zm-.13.06h0Zm2-.89h0Zm-3.18-1.3c.16-.07.12-.06,0,0Zm.24-.11Zm0,0h0C600.2,119.27,599.33,119.56,599.8,119.36Zm1.76-.78Zm.08,0h0C601.76,118.51,601.74,118.5,601.64,118.54Zm-.08,0Z"/><path class="cls-13" d="M650.59,133.33c-13.66,2.87-10.38,7.31-8.34,6.09,7.47-4.46,10.5-2.92,9.81-5.23C652.18,134.17,651.57,133.12,650.59,133.33Zm-4.5,4Z"/><path class="cls-13" d="M608,47.53a1.25,1.25,0,0,0,1.3,2.13c8.46-5,13-6.34,18.58-7.1a1.25,1.25,0,0,0-.08-2.5C627.85,40,620.75,40,608,47.53Zm9.23-2.07Z"/><path class="cls-13" d="M600.44,88.15c-.4.76-1.27.67-6.12,2.78-6.92,3.12-8.68,6-9.83,4.14-.81-1.34.85-1.94,2.16-2.81C591.08,89.34,602.83,83.6,600.44,88.15Z"/></g><path class="cls-6" d="M890.65,87.21c6.05-2.07,12.06-4.46,18.06-7.06C929.87,71,950.48,58.8,966.17,41.64c19.14-20.91,30.58-55,22.26-83.18-6-20.42-22.08-38.61-38.76-51.38-11.24-8.61-33.62-16.34-50.87-12.62-15.17,3.34-23.76,11-26.48,12.37C857-85.34,845-64.8,844.49-63.52c-1,1.41-9.52-8.77-28.36-7.42-44,3-76.51,30.81-71.31,88.51,3.66,40.69,44.16,68.54,81.49,75.74C848.77,97.64,869.94,94.28,890.65,87.21Z"/><path class="cls-2" d="M866.93,35.26c-1.66-3.11-3.42-6.18-5.13-9.24-3.57-6.37-6.35-12.94-9.38-19.57-4.63-10.12-10.13-19.82-14.94-29.85A32.82,32.82,0,0,0,824.65-37c-7.59-4.14-39.59-1.41-38.07,31,.93,19,9.21,27.92,22.31,40.9,15.37,15.17,34.52,21.44,52.85,22,5.74.19,14,.88,11.55-7A83.16,83.16,0,0,0,866.93,35.26Z"/><path class="cls-5" d="M63,668.62c-4.66-1.76-10,6.71-12.2,11.21-1.55,3.17-2.15,6.52-5.22,19-5.9,23.8,1.35,24.55-14.76-10.48-4.22-9.17-4.15-10.64-7.39-20.18C19.58,656.72,13.79,659,13,664.64c-1.2,8.38,5.73,35.63,17.23,51.54,19.61,27.43-8-10.17-30.86-18.52-4.32-1.6-11-3.48-12.2,1-2.36,9.13,52.46,43.92,57.09,37.88,4.1-.49,5.29-6.44,6.38-10.65C59.75,690,70.37,671.43,63,668.62Z"/><path class="cls-6" d="M90.65,887.21c6-2.07,12.06-4.46,18.06-7.06,21.16-9.19,41.77-21.35,57.46-38.51,19.14-20.91,30.58-55,22.26-83.18-6-20.42-22.08-38.61-38.76-51.38-11.24-8.61-33.62-16.34-50.87-12.62-15.17,3.34-23.76,11-26.48,12.37C57,714.66,45,735.2,44.49,736.48c-1,1.41-9.52-8.77-28.36-7.42-44,3-76.51,30.81-71.31,88.51,3.66,40.69,44.16,68.54,81.49,75.74C48.77,897.64,69.94,894.28,90.65,887.21Z"/><path class="cls-2" d="M143.29,762.92c-5.79-37.07-42-44.29-59.93-25.9-6.77,7-6,15.15-3.61,23.92,6.41,23.43,13.65,47.38,23.43,69.64,4.91,11.18,5.88,16.67,12.46,14.32C127.52,840.55,149.23,800.07,143.29,762.92Z"/><path class="cls-7" d="M98,755.89c0,.2-.07.4-.11.61-.32,1.84,1.76,2.39,3.13,1.74,3.72-1.75,7.65-4.08,10-7.61,1.19-1.81,2-4.25.94-6.32a4.39,4.39,0,0,0-4.46-2.28c-2.65.3-4.76,2.38-6.16,4.5a20.46,20.46,0,0,0-2,4.06A27.88,27.88,0,0,0,98,755.89Z"/><path class="cls-7" d="M114.18,774.27c-9.43,6.32-8.45,10.36,1.11,9.23C134.83,781.19,124.74,767.24,114.18,774.27Z"/><path class="cls-2" d="M66.93,835.26c-1.66-3.11-3.42-6.18-5.13-9.24-3.57-6.37-6.35-12.94-9.38-19.57-4.63-10.12-10.13-19.82-14.94-29.85A32.82,32.82,0,0,0,24.65,763c-7.59-4.14-39.59-1.41-38.07,31,.93,19,9.21,27.92,22.31,40.9,15.37,15.17,34.52,21.44,52.85,22,5.74.19,13.95.88,11.55-7A83.16,83.16,0,0,0,66.93,835.26Z"/><path class="cls-7" d="M7,788.64c30.31-2.19-19.18-19.22-9.17-3.72C-.8,787.08,2.53,789,7,788.64Zm7.51-5.79h0Z"/><path class="cls-2" d="M497.44,689.84c7.48-1.57,11.23,2.25,16.95,9,16.58,19.43,33.94,38,48,59.5,27.42,42,58.09,83.19,82.28,127.15,3.09,5.6,5.72,10.54,8.69,15.43,25,37.66,18.09,62.27,18.56,58.18-2.45,21.6-22.06,20.51-26.06,18.71-11.69,0-32.81-18.89-39.87-28C595.31,936,587.46,920,578.47,905.18c-18.39-30.35-31.18-62.52-45.06-95-12.42-29-25.31-58.14-34.8-88.29-2.37-7.53-5.07-15.56-5.34-23.53C493.07,689.5,497.81,689.76,497.44,689.84Z"/><g class="cls-14"><path class="cls-13" d="M530.45,706.59a1.26,1.26,0,0,1,.95,2.11c-.88.94-7.64.32-12.56,3.76-1,.67-5.23-1.15,3.25-4.32A53.21,53.21,0,0,1,530.45,706.59Z"/><path class="cls-13" d="M518.81,741c.66,2.2-.85,0-14.49,7.72a1.25,1.25,0,0,1-1.31-2.13C519.7,737.23,518.91,741,518.81,741Z"/><path class="cls-13" d="M574.94,763c.76,2.55-2.59.14-17.64,8.66a1.25,1.25,0,0,1-1.3-2.14C574.22,759.32,575.69,762.82,574.94,763Z"/><path class="cls-13" d="M524.74,763.6a1.25,1.25,0,0,1,.37,2.28c-6.31,3.13-4.33,2.3-9.44,5.33a1.25,1.25,0,0,1-1.3-2.14C525.53,762.44,524.84,763.58,524.74,763.6Z"/></g><path class="cls-5" d="M863,668.62c-4.66-1.76-10,6.71-12.2,11.21-1.55,3.17-2.15,6.52-5.22,19-5.9,23.8,1.35,24.55-14.76-10.48-4.22-9.17-4.15-10.64-7.39-20.18-3.85-11.41-9.64-9.11-10.43-3.49-1.2,8.38,5.73,35.63,17.23,51.54,19.61,27.43-8-10.17-30.86-18.52-4.32-1.6-11-3.48-12.2,1-2.36,9.13,52.46,43.92,57.09,37.88,4.1-.49,5.29-6.44,6.38-10.65C859.75,690,870.37,671.43,863,668.62Z"/><path class="cls-6" d="M890.65,887.21c6.05-2.07,12.06-4.46,18.06-7.06,21.16-9.19,41.77-21.35,57.46-38.51,19.14-20.91,30.58-55,22.26-83.18-6-20.42-22.08-38.61-38.76-51.38-11.24-8.61-33.62-16.34-50.87-12.62-15.17,3.34-23.76,11-26.48,12.37C857,714.66,845,735.2,844.49,736.48c-1,1.41-9.52-8.77-28.36-7.42-44,3-76.51,30.81-71.31,88.51,3.66,40.69,44.16,68.54,81.49,75.74C848.77,897.64,869.94,894.28,890.65,887.21Z"/><path class="cls-2" d="M866.93,835.26c-1.66-3.11-3.42-6.18-5.13-9.24-3.57-6.37-6.35-12.94-9.38-19.57-4.63-10.12-10.13-19.82-14.94-29.85A32.82,32.82,0,0,0,824.65,763c-7.59-4.14-39.59-1.41-38.07,31,.93,19,9.21,27.92,22.31,40.9,15.37,15.17,34.52,21.44,52.85,22,5.74.19,14,.88,11.55-7A83.16,83.16,0,0,0,866.93,835.26Z"/><path class="cls-7" d="M807,788.64c30.31-2.19-19.18-19.22-9.17-3.72C799.2,787.08,802.53,789,807,788.64Zm7.51-5.79h0Z"/><path class="cls-9" d="M460.62,903.1c-2.35-3.05-59.27-53-62.22-55.49C381,833,324.93,775.33,317.55,769.22c-10-8.35-20.26-22.53-28.89-6.82-13.46,24.13-11.28,44.6-6.06,71.91.06.83,4.07,18,5.69,22.9,12.19,37,47.08,71,87.62,73.53,10.18.63,20.65.92,30.8-.37,14-1.78,23.37-5.14,34.27-10.2,4.71-2.19,18.29-10.82,20.17-13.9A2.84,2.84,0,0,0,460.62,903.1Z"/><path class="cls-11" d="M413.46,892.67c-13.93-11.06-51.44-11.74-81.11-58.76-7.68-12.22-7.23-15.33-14.92-29.65-3.57-6.62-11.16-9.14-14.4-2.53-6.64,13.62,3.14,45.39,7.17,51.88-.09,0,13.35,27.16,35.2,40.14,12.37,7.6,43.63,15.47,60.49,11.82C418.67,902.8,418.87,897,413.46,892.67Z"/><path class="cls-4" d="M492.32,469.65c-.32,1.56-.16,2.22,1.25,3.14A77.1,77.1,0,0,0,507.28,480c19.76,8.6,13.85,1.09,17.18,12.9,10.54,36.25,74.86,68.81,109.87,77.25,34.2,8.21,72.33,18,119.4,22,26.47,2.27,113.19,3.9,129.16-14.93C927.22,525.2,626.28,463.75,569.43,463c-1.42,0-2.84-.06-4.26-.09-7.48-.18-15.22-.72-22.59.78-6.79,1.38-14.16,4.56-17.84,10.67-.45.73-.85,2.62-1.5,3.19-1.59,1.41-7.39-2.58-8.81-3.26C504,469.35,493.68,462.79,492.32,469.65Z"/><path class="cls-5" d="M649.92,557.52c-51.69-15.42-67.12-27.33-94.83-46.27-20.9-14.32-20.56-19.35-22.88-19.25-1.29-2.86-9.36-3.1,9.77,15.19,34.26,32.69,121.59,62,172.34,69.14,89.79,12.78,174.78-.31,162.94-4.22-.6-1.05-1.67-.52-2.36-.36C818.72,583.16,728.41,580.83,649.92,557.52ZM549.45,510.18s.62.45.58.49C549.35,510.13,548.81,509.72,549.45,510.18Z"/><path class="cls-5" d="M546.19,482.66c.41,1.84-2.6-.35,41.18,2.34-2.58-.3,35.35,4.18,132.53,31,39.27,10.64,26.58,7,45,11,56.14,12,105.15,36,105.27,36.06,2.17.8,9-.07-10.9-10.69-10.22-5.45-13.29-4-38.28-13.52-27.36-10.48-113.72-32.55-185.63-48.38-26-5.75-57.53-13.15-84-9.79C548.22,481.07,545.79,480.78,546.19,482.66ZM670,500.25c-.21-.06.61.11,1.29.24C671.35,500.56,671.92,500.74,670,500.25Z"/><path class="cls-5" d="M801.92,560.7c-179-27.19-241-63.43-243.54-63.67a1.28,1.28,0,0,0-1.93,1.44c.44,1.42,10.8,6.07,10.92,6.13,9,4.53,8.71,3.72,17.88,6.9,80.52,31.41,89.3,28.53,162.07,44.22,55.35,11.93,110.72,14.73,112.51,12.06C862.66,563.48,841.42,566.72,801.92,560.7Z"/><path class="cls-5" d="M587.36,485c.17,0,.22,0,0,0Z"/><path class="cls-9" d="M777.47,431.62a54.56,54.56,0,0,0,22.24,2.85c7.67-.58,15.49-2.16,21.44-7.29,6.67-5.76,11-14.09,13.08-22.56a51.55,51.55,0,0,0,1.39-15.75A45.92,45.92,0,0,0,831,371.8a21.47,21.47,0,0,0-3.41-5.39c-7.46-7.76-21.34-12.51-31.85-11.72-27.26,2.05-49.66,30.56-39.3,57.52C760.23,422,768.17,428.27,777.47,431.62Z"/><path class="cls-9" d="M813.15,284.39c8.66,8.11,17,10.2,28.23,6.3,5.73-2,11.61-4,16.1-8.13a50.48,50.48,0,0,0,9.93-13.19c3.16-5.85,6.61-13.24,7.14-20,1-12.21-6.27-25.41-14.68-30.7-10.45-6.66-22.19-8-28.78-5.45-13.89,5.4-29.12,21.71-31.17,37.25C798.17,264,799.73,272.53,813.15,284.39Z"/><path class="cls-5" d="M573.41,294.8c-2.45-2.64-8.95-6.21-12.37-7.34-1.1-.37-2.3-1.19-3.49-.65a2,2,0,0,0,.31,3.79c2.3.76,8.54,4.61,14.44,11.59,6.21,7.44,8.92,8.25,3.87,5.81-.14-.07-20.23-9.69-20.37-9.71-1.83-.36-4.46,2,0,5.86,11.24,9.54,28.91,11.16,30.22,13.25.57.89.9,1.74,1.86,2a2,2,0,0,0,2.27-2.91c-1.08-2.05-.78-1.08.47-3.37,4.54-8.47,0-31.88-6-29.14-4.68,2.1,3.77,2.82,1.31,19.63-.33,2.12.05,2.25-1.67-1.63C575.87,283,566.06,278.44,573.41,294.8Zm-16.2,5.14h0C557.18,299.83,557.18,299.79,557.21,299.94Zm2.43-12.83h0Z"/><path class="cls-5" d="M573.29,294.66l-.16-.17Z"/><path class="cls-6" d="M616,388.77a54.6,54.6,0,0,0,15.78-15.94c4.2-6.44,7.7-13.61,7.23-21.45-.52-8.8-4.5-17.3-10-24.1a51,51,0,0,0-11.66-10.67A45.88,45.88,0,0,0,601,309.89a21.26,21.26,0,0,0-6.35-.57c-10.7,1.2-22.9,9.34-28.66,18.17-14.94,22.89-5.91,58,21.79,66.16C597.88,396.62,607.69,394.11,616,388.77Z"/><path class="cls-5" d="M174.22,641.59c-.12,1.15-.66,2.49.12,3.54A2,2,0,0,0,178,644c.25-2.4,2.65-9.33,8.18-16.61,5.91-7.69,6.11-10.5,4.82-5,0,.15-5.05,21.85-5,22,0,1.87,3,3.91,5.71-1.31,6.88-13,4.6-30.64,6.36-32.37.75-.76,1.5-1.26,1.54-2.25a2,2,0,0,0-3.33-1.59c-1.77,1.5-.89,1-3.39.28-9.26-2.59-31.13,6.9-27.14,12.23,3.08,4.12,3.94-4.29,20.88-5.54.91-.06-4.1,4.27-6.74,9.56A66.08,66.08,0,0,0,174.22,641.59Zm13,1Zm-13,.42h0Z"/><path class="cls-9" d="M261.15,565.9a54.4,54.4,0,0,0-19-11.93c-7.2-2.7-15-4.56-22.51-2.4-8.48,2.42-15.9,8.16-21.35,15a51.33,51.33,0,0,0-7.89,13.71,46,46,0,0,0-3,17.42,21.69,21.69,0,0,0,.83,6.32c3.5,10.18,14.1,20.32,24,24,25.6,9.61,57.91-6.85,59.84-35.66C272.75,581.88,268.17,572.85,261.15,565.9Z"/><path class="cls-5" d="M684.4,708.28c3.4,1.18,10.82,1.31,14.38.72,1.14-.19,2.58,0,3.38-1a2,2,0,0,0-2-3.22c-2.38.4-9.7-.1-18.18-3.53-9-3.69-11.73-3.14-6.12-3.33.15,0,22.4-.86,22.54-.9,1.79-.54,3-3.9-2.76-5.17-14.39-3.21-30.77,3.59-32.9,2.36-.93-.53-1.62-1.12-2.58-.9a2,2,0,0,0-.66,3.63c1.91,1.31,1.2.6,1.16,3.2-.08,9.61,14.82,28.22,18.92,23,3.16-4.05-4.65-.74-10.3-16.77-.7-2-1.1-2,2.24.67C687.75,719.91,698.53,719.32,684.4,708.28Zm11.94-12.1Zm3.83,12.48h0Z"/><path class="cls-5" d="M684.58,708.33l.21.08C685.2,708.55,685,708.47,684.58,708.33Z"/><path class="cls-9" d="M602.94,645a54.5,54.5,0,0,0-6.54,21.45c-.71,7.66-.47,15.63,3.6,22.36,4.56,7.54,12,13.2,20,16.67a51.25,51.25,0,0,0,15.29,4,45.93,45.93,0,0,0,17.6-1.67,21.72,21.72,0,0,0,5.88-2.45c8.9-6.06,15.91-18.94,16.89-29.44,2.56-27.22-21.8-54.08-50.11-48.39C615.31,629.58,607.8,636.37,602.94,645Z"/></g></svg>